#N canvas -8 -8 1366 725 10;
#X obj 333 394 f;
#X obj 332 356 t f b;
#X obj 127 438 expr ($f1 + $f2 + $f3 + $f4) * 0.25;
#X obj 271 296 f;
#X obj 270 258 t f b;
#X obj 175 243 f;
#X obj 174 205 t f b;
#X obj 92 113 t f f;
#X obj 92 70 inlet;
#X obj 128 498 outlet;
#X connect 0 0 2 3;
#X connect 1 0 0 1;
#X connect 1 1 0 0;
#X connect 2 0 9 0;
#X connect 3 0 1 0;
#X connect 3 0 2 2;
#X connect 4 0 3 1;
#X connect 4 1 3 0;
#X connect 5 0 4 0;
#X connect 5 0 2 1;
#X connect 6 0 5 1;
#X connect 6 1 5 0;
#X connect 7 0 2 0;
#X connect 7 1 6 0;
#X connect 8 0 7 0;
