#N canvas -8 -8 1362 721 10;
#X obj 3 28 inlet;
#X obj 3 70 t b;
#X obj 3 215 + 1;
#X obj 3 160 i;
#X obj 28 372 outlet;
#X obj 75 31 inlet;
#X obj 135 31 inlet;
#X obj 3 258 t f f;
#X obj 55 299 sel \$2;
#X obj 75 117 i \$1;
#X obj 75 81 t b;
#X obj 135 110 i \$1;
#X obj 135 74 t b;
#X obj 134 147 - 1, f 5;
#X obj 57 144 - 1;
#X connect 0 0 1 0;
#X connect 1 0 3 0;
#X connect 2 0 3 1;
#X connect 2 0 7 0;
#X connect 3 0 2 0;
#X connect 5 0 10 0;
#X connect 6 0 12 0;
#X connect 7 0 8 0;
#X connect 7 1 4 0;
#X connect 8 0 9 0;
#X connect 9 0 14 0;
#X connect 10 0 9 0;
#X connect 11 0 13 0;
#X connect 12 0 11 0;
#X connect 13 0 3 0;
#X connect 14 0 3 1;
