#N canvas -8 -8 1366 725 10;
#X obj 17 305 *~;
#X obj 301 365 switch~;
#X obj 282 322 change;
#X obj 102 45 t f f;
#X obj 18 10 inlet~;
#X obj 102 12 inlet;
#X obj 16 370 outlet~;
#X obj 34 265 line~;
#X obj 179 12 inlet;
#X obj 74 199 pack 1 \$1;
#X obj 200 167 sel 0;
#X msg 369 277 0;
#X msg 261 277 1;
#X msg 301 158 stop;
#X obj 368 212 delay \$1;
#X obj 415 256 loadbang;
#X connect 0 0 6 0;
#X connect 2 0 1 0;
#X connect 3 0 9 0;
#X connect 3 1 10 0;
#X connect 4 0 0 0;
#X connect 5 0 3 0;
#X connect 7 0 0 1;
#X connect 8 0 9 1;
#X connect 8 0 14 1;
#X connect 9 0 7 0;
#X connect 10 0 14 0;
#X connect 10 1 12 0;
#X connect 10 1 13 0;
#X connect 11 0 2 0;
#X connect 12 0 2 0;
#X connect 13 0 14 0;
#X connect 14 0 11 0;
#X connect 15 0 11 0;
