#N canvas -8 -8 1362 721 10;
#X obj 17 255 *~;
#X obj 214 348 switch~;
#X obj 52 56 t f f;
#X obj 18 10 inlet~;
#X obj 102 12 inlet;
#X obj 16 320 outlet~;
#X obj 34 215 line~;
#X msg 35 171 \$1 100;
#X obj 199 181 sel 0;
#X msg 199 253 0;
#X msg 234 263 1;
#X obj 262 190 loadbang;
#X msg 106 229 0;
#X obj 108 175 delay 20;
#X obj 199 223 delay 300;
#X msg 318 102 stop;
#X obj 79 86 > 0.002;
#X connect 0 0 5 0;
#X connect 2 0 7 0;
#X connect 2 1 16 0;
#X connect 3 0 0 0;
#X connect 4 0 2 0;
#X connect 6 0 0 1;
#X connect 7 0 6 0;
#X connect 8 0 13 0;
#X connect 8 0 14 0;
#X connect 8 1 10 0;
#X connect 8 1 15 0;
#X connect 9 0 1 0;
#X connect 10 0 1 0;
#X connect 11 0 9 0;
#X connect 12 0 7 0;
#X connect 13 0 12 0;
#X connect 14 0 9 0;
#X connect 15 0 14 0;
#X connect 15 0 13 0;
#X connect 16 0 8 0;
