#N canvas -8 -8 1362 721 10;
#X obj 75 205 expr (abs($f1-180))/180;
#X obj 126 270 t b f;
#X obj 75 309 pow 3;
#X obj 74 364 t f f;
#X obj 101 408 > 0.1;
#X obj 24 466 spigot 1;
#X obj 100 458 sel 0;
#X msg 100 486 0;
#X obj 75 156 % 360;
#X obj 75 23 inlet;
#X obj 128 26 inlet;
#X obj 218 23 inlet;
#X obj 24 547 outlet;
#X obj 104 81 * 25.714;
#X obj 105 55 - 1;
#X obj 75 101 +;
#X connect 0 0 2 0;
#X connect 1 0 2 0;
#X connect 1 1 2 1;
#X connect 2 0 3 0;
#X connect 3 0 5 0;
#X connect 3 1 4 0;
#X connect 4 0 5 1;
#X connect 4 0 6 0;
#X connect 5 0 12 0;
#X connect 6 0 7 0;
#X connect 7 0 12 0;
#X connect 8 0 0 0;
#X connect 9 0 15 0;
#X connect 10 0 14 0;
#X connect 11 0 1 0;
#X connect 13 0 15 1;
#X connect 14 0 13 0;
#X connect 15 0 8 0;
