#N canvas -8 -8 1366 725 10;
#X obj 495 455 inlet~;
#X obj 1451 157 nbx 5 14 0 9 0 0 empty empty empty 0 -8 0 10 -262144
-1 -1 9 256;
#X msg 590 366 1;
#X msg 691 361 2;
#X msg 788 365 3;
#X msg 889 360 4;
#X msg 986 362 5;
#X msg 1087 357 6;
#X msg 1184 361 7;
#X msg 1285 356 8;
#X obj 1528 257 loadbang;
#X msg 1456 359 9;
#X msg 1557 354 10;
#X msg 1654 358 11;
#X msg 1755 353 12;
#X msg 1852 355 13;
#X msg 1953 350 14;
#X obj 1064 227 expr 360-$f1;
#X obj 1633 530 pack 1 1 1 1 1 1 1 1 1 1 1 1 1 1;
#X obj 1580 565 list store;
#X obj 1008 126 t b f;
#X obj 1009 86 inlet;
#X obj 1566 604 outlet;
#X obj 1453 90 inlet;
#X obj 510 524 cpuamp~;
#X obj 711 527 cpuamp~;
#X obj 575 525 cpuamp~;
#X obj 646 526 cpuamp~;
#X obj 791 527 cpuamp~;
#X obj 856 528 cpuamp~;
#X obj 927 529 cpuamp~;
#X obj 992 530 cpuamp~;
#X obj 1068 533 cpuamp~;
#X obj 1133 534 cpuamp~;
#X obj 1204 535 cpuamp~;
#X obj 1269 536 cpuamp~;
#X obj 1352 531 cpuamp~;
#X obj 1417 532 cpuamp~;
#X obj 941 154 t b b;
#X obj 1403 116 t b f;
#X obj 517 617 dac~ 15 16 17 18 19 20 21 22 1 2 3 4 5 6 7 8;
#X obj 654 405 DA-angle-gain~;
#X obj 751 409 DA-angle-gain~;
#X obj 852 404 DA-angle-gain~;
#X obj 949 406 DA-angle-gain~;
#X obj 1050 401 DA-angle-gain~;
#X obj 1147 405 DA-angle-gain~;
#X obj 1248 400 DA-angle-gain~;
#X obj 1402 420 DA-angle-gain~;
#X obj 1524 404 DA-angle-gain~;
#X obj 1617 402 DA-angle-gain~;
#X obj 1718 397 DA-angle-gain~;
#X obj 1815 399 DA-angle-gain~;
#X obj 1916 394 DA-angle-gain~;
#X obj 553 410 DA-angle-gain~;
#X connect 0 0 24 0;
#X connect 0 0 25 0;
#X connect 0 0 26 0;
#X connect 0 0 27 0;
#X connect 0 0 28 0;
#X connect 0 0 29 0;
#X connect 0 0 30 0;
#X connect 0 0 31 0;
#X connect 0 0 32 0;
#X connect 0 0 33 0;
#X connect 0 0 34 0;
#X connect 0 0 35 0;
#X connect 0 0 36 0;
#X connect 0 0 37 0;
#X connect 1 0 41 2;
#X connect 1 0 42 2;
#X connect 1 0 43 2;
#X connect 1 0 44 2;
#X connect 1 0 45 2;
#X connect 1 0 46 2;
#X connect 1 0 47 2;
#X connect 1 0 48 2;
#X connect 1 0 49 2;
#X connect 1 0 50 2;
#X connect 1 0 51 2;
#X connect 1 0 52 2;
#X connect 1 0 53 2;
#X connect 1 0 54 2;
#X connect 2 0 54 1;
#X connect 3 0 41 1;
#X connect 4 0 42 1;
#X connect 5 0 43 1;
#X connect 6 0 44 1;
#X connect 7 0 45 1;
#X connect 8 0 46 1;
#X connect 9 0 47 1;
#X connect 10 0 3 0;
#X connect 10 0 4 0;
#X connect 10 0 5 0;
#X connect 10 0 2 0;
#X connect 10 0 6 0;
#X connect 10 0 7 0;
#X connect 10 0 8 0;
#X connect 10 0 9 0;
#X connect 10 0 11 0;
#X connect 10 0 12 0;
#X connect 10 0 13 0;
#X connect 10 0 14 0;
#X connect 10 0 15 0;
#X connect 10 0 16 0;
#X connect 11 0 48 1;
#X connect 12 0 49 1;
#X connect 13 0 50 1;
#X connect 14 0 51 1;
#X connect 15 0 52 1;
#X connect 16 0 53 1;
#X connect 17 0 41 0;
#X connect 17 0 42 0;
#X connect 17 0 43 0;
#X connect 17 0 44 0;
#X connect 17 0 45 0;
#X connect 17 0 46 0;
#X connect 17 0 47 0;
#X connect 17 0 48 0;
#X connect 17 0 49 0;
#X connect 17 0 50 0;
#X connect 17 0 51 0;
#X connect 17 0 52 0;
#X connect 17 0 53 0;
#X connect 17 0 54 0;
#X connect 18 0 19 1;
#X connect 19 0 22 0;
#X connect 20 0 38 0;
#X connect 20 1 17 0;
#X connect 21 0 20 0;
#X connect 23 0 39 0;
#X connect 24 0 40 0;
#X connect 25 0 40 3;
#X connect 26 0 40 1;
#X connect 27 0 40 2;
#X connect 28 0 40 4;
#X connect 29 0 40 5;
#X connect 30 0 40 6;
#X connect 31 0 40 7;
#X connect 32 0 40 8;
#X connect 33 0 40 9;
#X connect 34 0 40 10;
#X connect 35 0 40 11;
#X connect 36 0 40 12;
#X connect 37 0 40 13;
#X connect 38 0 19 0;
#X connect 38 1 18 0;
#X connect 39 0 38 0;
#X connect 39 1 1 0;
#X connect 41 0 18 1;
#X connect 41 0 26 1;
#X connect 42 0 18 2;
#X connect 42 0 27 1;
#X connect 43 0 18 3;
#X connect 43 0 25 1;
#X connect 44 0 18 4;
#X connect 44 0 28 1;
#X connect 45 0 18 5;
#X connect 45 0 29 1;
#X connect 46 0 18 6;
#X connect 46 0 30 1;
#X connect 47 0 18 7;
#X connect 47 0 31 1;
#X connect 48 0 18 8;
#X connect 48 0 32 1;
#X connect 49 0 18 9;
#X connect 49 0 33 1;
#X connect 50 0 18 10;
#X connect 50 0 34 1;
#X connect 51 0 18 11;
#X connect 51 0 35 1;
#X connect 52 0 18 12;
#X connect 52 0 36 1;
#X connect 53 0 18 13;
#X connect 53 0 37 1;
#X connect 54 0 18 0;
#X connect 54 0 24 1;
