#N canvas 340 293 809 725 10;
#X obj 39 26 inlet~;
#X obj 56 48 inlet~;
#X obj 75 71 inlet~;
#X obj 92 95 inlet~;
#X obj 109 119 inlet~;
#X obj 126 141 inlet~;
#X obj 145 164 inlet~;
#X obj 162 188 inlet~;
#X obj 180 208 inlet~;
#X obj 197 230 inlet~;
#X obj 215 253 inlet~;
#X obj 232 277 inlet~;
#X obj 249 297 inlet~;
#X obj 266 321 inlet~;
#X obj 283 342 inlet~;
#X obj 301 368 inlet~;
#X obj 40 454 dac~ 15 16 17 18 19 20 21 22 1 2 3 4 5 6 7 8;
#X connect 0 0 16 0;
#X connect 1 0 16 1;
#X connect 2 0 16 2;
#X connect 3 0 16 3;
#X connect 4 0 16 4;
#X connect 5 0 16 5;
#X connect 6 0 16 6;
#X connect 7 0 16 7;
#X connect 8 0 16 8;
#X connect 9 0 16 9;
#X connect 10 0 16 10;
#X connect 11 0 16 11;
#X connect 12 0 16 12;
#X connect 13 0 16 13;
#X connect 14 0 16 14;
#X connect 15 0 16 15;
