#N canvas -8 -8 1366 725 10;
#X obj 317 190 iter16;
#X obj 35 230 sel 1 2 3 4 5 6 7 8 9 10 11 12 13 14, f 80;
#X obj 37 282 tgl 15 0 empty empty empty 17 7 0 10 -262144 -1 -1 0
1;
#X obj 67 282 tgl 15 0 empty empty empty 17 7 0 10 -262144 -1 -1 0
1;
#X obj 103 282 tgl 15 0 empty empty empty 17 7 0 10 -262144 -1 -1 0
1;
#X obj 133 284 tgl 15 0 empty empty empty 17 7 0 10 -262144 -1 -1 0
1;
#X obj 168 282 tgl 15 0 empty empty empty 17 7 0 10 -262144 -1 -1 0
1;
#X obj 198 282 tgl 15 0 empty empty empty 17 7 0 10 -262144 -1 -1 0
1;
#X obj 234 282 tgl 15 0 empty empty empty 17 7 0 10 -262144 -1 -1 0
1;
#X obj 271 285 tgl 15 0 empty empty empty 17 7 0 10 -262144 -1 -1 0
1;
#X obj 307 282 tgl 15 0 empty empty empty 17 7 0 10 -262144 -1 -1 0
1;
#X obj 337 282 tgl 15 0 empty empty empty 17 7 0 10 -262144 -1 -1 0
1;
#X obj 388 285 tgl 15 0 empty empty empty 17 7 0 10 -262144 -1 -1 0
1;
#X obj 418 285 tgl 15 0 empty empty empty 17 7 0 10 -262144 -1 -1 0
1;
#X obj 453 285 tgl 15 0 empty empty empty 17 7 0 10 -262144 -1 -1 0
1;
#X obj 495 288 tgl 15 0 empty empty empty 17 7 0 10 -262144 -1 -1 0
1;
#X msg 385 177 0;
#X obj 323 84 inlet;
#X obj 28 373 pack 0 0 0 0 0 0 0 0 0 0 0 0 0 0, f 80;
#X obj 29 343 i, f 5;
#X obj 323 146 t b l b;
#X obj 32 418 unpack 0 0 0 0 0 0 0 0 0 0 0 0 0 0, f 80;
#X obj 48 74 inlet~;
#X obj 86 699 DAoutput~, f 84;
#X text 370 83 select speakers;
#X obj 21 476 cpuamp-fade~ 40;
#X obj 487 80 inlet;
#X text 538 77 fade time;
#X obj 239 577 cpuamp-fade~ 40;
#X obj 67 504 cpuamp-fade~ 40;
#X obj 135 522 cpuamp-fade~ 40;
#X obj 185 544 cpuamp-fade~ 40;
#X obj 185 444 cpuamp-fade~ 40;
#X obj 222 468 cpuamp-fade~ 40;
#X obj 276 493 cpuamp-fade~ 40;
#X obj 330 521 cpuamp-fade~ 40;
#X obj 392 556 cpuamp-fade~ 40;
#X obj 448 592 cpuamp-fade~ 40;
#X obj 472 623 cpuamp-fade~ 40;
#X obj 520 529 cpuamp-fade~ 40;
#X obj 587 600 cpuamp-fade~ 40;
#X connect 0 0 1 0;
#X connect 1 0 2 0;
#X connect 1 1 3 0;
#X connect 1 2 4 0;
#X connect 1 3 5 0;
#X connect 1 4 6 0;
#X connect 1 5 7 0;
#X connect 1 6 8 0;
#X connect 1 7 9 0;
#X connect 1 8 10 0;
#X connect 1 9 11 0;
#X connect 1 10 12 0;
#X connect 1 11 13 0;
#X connect 1 12 14 0;
#X connect 1 13 15 0;
#X connect 2 0 19 1;
#X connect 3 0 18 1;
#X connect 4 0 18 2;
#X connect 5 0 18 3;
#X connect 6 0 18 4;
#X connect 7 0 18 5;
#X connect 8 0 18 6;
#X connect 9 0 18 7;
#X connect 10 0 18 8;
#X connect 11 0 18 9;
#X connect 12 0 18 10;
#X connect 13 0 18 11;
#X connect 14 0 18 12;
#X connect 15 0 18 13;
#X connect 16 0 2 0;
#X connect 16 0 3 0;
#X connect 16 0 4 0;
#X connect 16 0 5 0;
#X connect 16 0 6 0;
#X connect 16 0 7 0;
#X connect 16 0 8 0;
#X connect 16 0 9 0;
#X connect 16 0 10 0;
#X connect 16 0 11 0;
#X connect 16 0 12 0;
#X connect 16 0 13 0;
#X connect 16 0 14 0;
#X connect 16 0 15 0;
#X connect 17 0 20 0;
#X connect 18 0 21 0;
#X connect 19 0 18 0;
#X connect 20 0 19 0;
#X connect 20 1 0 0;
#X connect 20 2 16 0;
#X connect 21 0 25 1;
#X connect 21 1 29 1;
#X connect 21 2 30 1;
#X connect 21 3 31 1;
#X connect 21 4 28 1;
#X connect 21 5 32 1;
#X connect 21 6 33 1;
#X connect 21 7 34 1;
#X connect 21 8 35 1;
#X connect 21 9 36 1;
#X connect 21 10 37 1;
#X connect 21 11 38 1;
#X connect 21 12 39 1;
#X connect 21 13 40 1;
#X connect 22 0 25 0;
#X connect 22 0 28 0;
#X connect 22 0 29 0;
#X connect 22 0 30 0;
#X connect 22 0 31 0;
#X connect 22 0 32 0;
#X connect 22 0 33 0;
#X connect 22 0 34 0;
#X connect 22 0 35 0;
#X connect 22 0 36 0;
#X connect 22 0 37 0;
#X connect 22 0 38 0;
#X connect 22 0 39 0;
#X connect 22 0 40 0;
#X connect 25 0 23 0;
#X connect 26 0 25 2;
#X connect 26 0 28 2;
#X connect 26 0 29 2;
#X connect 26 0 30 2;
#X connect 26 0 31 2;
#X connect 26 0 32 2;
#X connect 26 0 33 2;
#X connect 26 0 34 2;
#X connect 26 0 35 2;
#X connect 26 0 36 2;
#X connect 26 0 37 2;
#X connect 26 0 38 2;
#X connect 26 0 39 2;
#X connect 26 0 40 2;
#X connect 28 0 23 4;
#X connect 29 0 23 1;
#X connect 30 0 23 2;
#X connect 31 0 23 3;
#X connect 32 0 23 5;
#X connect 33 0 23 6;
#X connect 34 0 23 7;
#X connect 35 0 23 8;
#X connect 36 0 23 9;
#X connect 37 0 23 10;
#X connect 38 0 23 11;
#X connect 39 0 23 12;
#X connect 40 0 23 13;
