#N canvas 526 3 593 524 10;
#X obj 16 17 inlet;
#X obj 16 215 outlet;
#X obj 16 75 expr (($f1 / 360) * 14)+1;
#X obj 16 165 int;
#X obj 16 116 t f f;
#X obj 104 220 outlet;
#X obj 198 264 outlet;
#X obj 106 165 + 1;
#X obj 194 196 -;
#X obj 274 375 outlet;
#X obj 293 266 expr 1-$f1;
#X connect 0 0 2 0;
#X connect 2 0 4 0;
#X connect 3 0 1 0;
#X connect 3 0 7 0;
#X connect 3 0 8 1;
#X connect 4 0 8 0;
#X connect 4 1 3 0;
#X connect 7 0 5 0;
#X connect 8 0 6 0;
#X connect 8 0 10 0;
#X connect 10 0 9 0;
