#N canvas 107 40 1370 729 10;
#X obj 714 408 s global-volume;
#X obj 717 350 hsl 128 15 0 100 0 0 empty empty empty -2 -8 0 10 -262144
-1 -1 12700 1;
#X obj 714 377 * 0.001;
#X text 834 456 DAdegrees~;
#X text 836 435 MonoPlay~;
#N canvas -353 194 1366 722 AmbientSound 0;
#X obj 4 262 MonoPlay~ 45;
#X obj 271 72 MonoPlay~ 52;
#X obj 4 10 MonoPlay~ 41;
#X obj 4 73 MonoPlay~ 42;
#X obj 4 133 MonoPlay~ 43;
#X obj 4 199 MonoPlay~ 44;
#X obj 4 325 MonoPlay~ 46;
#X obj 4 388 MonoPlay~ 47;
#X obj 4 451 MonoPlay~ 48;
#X obj 4 514 MonoPlay~ 49;
#X obj 4 577 MonoPlay~ 50;
#X obj 272 9 MonoPlay~ 51;
#X obj 271 135 MonoPlay~ 53;
#X obj 272 194 MonoPlay~ 54;
#X obj 272 257 MonoPlay~ 55;
#X obj 272 320 MonoPlay~ 56;
#X obj 272 383 MonoPlay~ 57;
#X obj 272 446 MonoPlay~ 58;
#X obj 272 509 MonoPlay~ 59;
#X obj 272 572 MonoPlay~ 60;
#X obj 538 9 MonoPlay~ 61;
#X obj 538 72 MonoPlay~ 62;
#X obj 538 135 MonoPlay~ 63;
#X obj 538 198 MonoPlay~ 64;
#X restore 17 331 pd AmbientSound;
#N canvas 4 58 1366 725 catch 0;
#X obj 17 38 catch~ chan1;
#X obj 16 85 GlobalVolume~;
#X obj 11 155 outlet~, f 10;
#X connect 0 0 1 0;
#X connect 1 0 2 0;
#X restore 11 23 pd catch;
#N canvas 4 58 1366 725 catch 0;
#X obj 16 85 GlobalVolume~;
#X obj 11 155 outlet~, f 10;
#X obj 17 38 catch~ chan2;
#X connect 0 0 1 0;
#X connect 2 0 0 0;
#X restore 258 23 pd catch;
#N canvas 4 58 1366 725 catch 0;
#X obj 16 85 GlobalVolume~;
#X obj 11 155 outlet~, f 10;
#X obj 17 38 catch~ chan3;
#X connect 0 0 1 0;
#X connect 2 0 0 0;
#X restore 512 24 pd catch;
#N canvas -8 -8 1366 725 catch 0;
#X obj 16 85 GlobalVolume~;
#X obj 11 155 outlet~, f 10;
#X obj 17 38 catch~ chan4;
#X connect 0 0 1 0;
#X connect 2 0 0 0;
#X restore 759 24 pd catch;
#N canvas -8 -8 1366 725 catch 0;
#X obj 16 85 GlobalVolume~;
#X obj 11 155 outlet~, f 10;
#X obj 19 38 catch~ chan5;
#X connect 0 0 1 0;
#X connect 2 0 0 0;
#X restore 14 91 pd catch;
#N canvas -8 -8 1366 725 catch 0;
#X obj 16 85 GlobalVolume~;
#X obj 11 155 outlet~, f 10;
#X obj 17 38 catch~ chan6;
#X connect 0 0 1 0;
#X connect 2 0 0 0;
#X restore 261 96 pd catch;
#N canvas -8 -8 1366 725 catch 0;
#X obj 16 85 GlobalVolume~;
#X obj 11 155 outlet~, f 10;
#X obj 17 38 catch~ chan7;
#X connect 0 0 1 0;
#X connect 2 0 0 0;
#X restore 515 97 pd catch;
#N canvas -8 -8 1366 725 catch 0;
#X obj 16 85 GlobalVolume~;
#X obj 11 155 outlet~, f 10;
#X obj 17 38 catch~ chan8;
#X connect 0 0 1 0;
#X connect 2 0 0 0;
#X restore 762 97 pd catch;
#N canvas 842 184 1366 725 KeySound 1;
#X obj 532 672;
#X text 637 668 replace 25 with Cat;
#X obj 3 387 MonoPlay~ 7;
#X obj 4 17 MonoPlay~ 1;
#X obj 4 79 MonoPlay~ 2;
#X obj 3 324 MonoPlay~ 6;
#X obj 3 140 MonoPlay~ 3;
#X obj 2 200 MonoPlay~ 4;
#X obj 3 263 MonoPlay~ 5;
#X obj 3 450 MonoPlay~ 8;
#X obj 3 513 MonoPlay~ 9;
#X obj 3 571 MonoPlay~ 10;
#X obj 259 17 MonoPlay~ 11;
#X obj 260 78 MonoPlay~ 12;
#X obj 260 140 MonoPlay~ 13;
#X obj 260 200 MonoPlay~ 14;
#X obj 260 262 MonoPlay~ 15;
#X obj 260 325 MonoPlay~ 16;
#X obj 260 388 MonoPlay~ 17;
#X obj 260 450 MonoPlay~ 18;
#X obj 260 512 MonoPlay~ 19;
#X obj 260 574 MonoPlay~ 20;
#X obj 521 18 MonoPlay~ 21;
#X obj 521 81 MonoPlay~ 22;
#X obj 521 144 MonoPlay~ 23;
#X obj 521 207 MonoPlay~ 24;
#X obj 521 270 MonoPlay~ 25;
#X obj 521 333 MonoPlay~ 26;
#X obj 521 396 MonoPlay~ 27;
#X obj 521 459 MonoPlay~ 28;
#X obj 521 522 MonoPlay~ 29;
#X obj 521 585 MonoPlay~ 30;
#X obj 779 18 MonoPlay~ 31;
#X obj 779 81 MonoPlay~ 32;
#X obj 779 144 MonoPlay~ 33;
#X obj 779 207 MonoPlay~ 34;
#X obj 779 270 MonoPlay~ 35;
#X obj 779 333 MonoPlay~ 36;
#X obj 779 396 MonoPlay~ 37;
#X obj 779 459 MonoPlay~ 38;
#X obj 779 522 MonoPlay~ 39;
#X obj 779 585 MonoPlay~ 40;
#X restore 16 304 pd KeySound;
#X obj 714 264 loadbang;
#X msg 714 308 100;
#X obj 104 500 netreceive 9000;
#X obj 70 596 print;
#X obj 184 551 list prepend set;
#X obj 184 582 list trim;
#X symbolatom 173 663 10 0 0 0 - - -, f 10;
#X floatatom 184 524 5 0 0 0 - - -, f 5;
#X msg 104 472 listen 9000;
#X obj 858 382 s load-all;
#X obj 858 350 bng 15 250 50 0 empty empty empty 17 7 0 10 -262144
-1 -1;
#X obj 858 315 delay 2000;
#X text 161 26 GROUP 1 Speech;
#X text 385 27 GROUP 2 Key Sounds;
#X text 649 8 GROUP 3 - Wind 1;
#X text 898 10 GROUP 4 - Wind 2;
#N canvas 4 273 538 770 spin 0;
#X obj 88 60 tgl 15 0 empty empty empty 17 7 0 10 -262144 -1 -1 0 1
;
#X obj 92 373 % 360;
#X obj 91 332 +;
#X obj 91 298 f 0;
#X obj 85 182 t b b;
#X obj 212 473 % 360;
#X obj 100 400 abs, f 6;
#X obj 126 216 random 64;
#X obj 125 250 - 32;
#X obj 85 34 r wind-active;
#X obj 129 561 s 3-set-deg;
#X obj 226 562 s 4-set-deg;
#X obj 193 445 + 180;
#X obj 86 98 metro 80;
#X obj 125 282 * 0.65, f 9;
#X obj 100 424 average4;
#X obj 234 172 s 40-play;
#X obj 238 228 s 41-play;
#X obj 249 264 s 42-play;
#X connect 0 0 13 0;
#X connect 0 0 16 0;
#X connect 0 0 17 0;
#X connect 0 0 18 0;
#X connect 1 0 3 1;
#X connect 1 0 6 0;
#X connect 2 0 1 0;
#X connect 3 0 2 0;
#X connect 4 0 3 0;
#X connect 4 1 7 0;
#X connect 5 0 11 0;
#X connect 6 0 15 0;
#X connect 7 0 8 0;
#X connect 8 0 14 0;
#X connect 9 0 0 0;
#X connect 12 0 5 0;
#X connect 13 0 4 0;
#X connect 14 0 2 1;
#X connect 15 0 10 0;
#X connect 15 0 12 0;
#X restore 119 331 pd spin;
#X obj 803 516 snapshot~;
#N canvas -8 -8 1366 725 catch 0;
#X obj 16 85 GlobalVolume~;
#X obj 11 155 outlet~, f 10;
#X obj 19 38 catch~ chan9;
#X connect 0 0 1 0;
#X connect 2 0 0 0;
#X restore 14 167 pd catch;
#N canvas -8 -8 1366 725 catch 0;
#X obj 16 85 GlobalVolume~;
#X obj 11 155 outlet~, f 10;
#X obj 19 38 catch~ chan10;
#X connect 0 0 1 0;
#X connect 2 0 0 0;
#X restore 264 177 pd catch;
#X text 135 102 GROUP 5 - Stream 1;
#X text 382 103 GROUP 6 - Stream 2;
#X text 618 101 GROUP 7 - Wind + River;
#X text 855 99 GROUP 8 - Wind + River 2;
#N canvas -8 -8 1366 725 catch 0;
#X obj 16 85 GlobalVolume~;
#X obj 11 155 outlet~, f 10;
#X obj 19 38 catch~ chan11;
#X connect 0 0 1 0;
#X connect 2 0 0 0;
#X restore 514 175 pd catch;
#N canvas -8 -8 1366 725 catch 0;
#X obj 16 85 GlobalVolume~;
#X obj 11 155 outlet~, f 10;
#X obj 19 38 catch~ chan12;
#X connect 0 0 1 0;
#X connect 2 0 0 0;
#X restore 761 172 pd catch;
#X text 98 178 GROUP 9 - Cicadas + ducks;
#X text 343 179 GROUP 10 - Cicadas + ducks;
#X text 651 177 GROUP 11 - River;
#X text 900 179 GROUP 12 - River;
#X obj 14 196 DAdegrees~ 9;
#X msg 225 302 1 - Change Scene (num for scene num);
#X msg 226 373 3 - Change group pos;
#X msg 228 403 (group num \, degrees \, focus);
#X obj 264 198 DAdegrees~ 10;
#X obj 11 47 DAdegrees~ 1;
#X obj 257 47 DAdegrees~ 2;
#X obj 512 47 DAdegrees~ 3;
#X obj 760 46 DAdegrees~ 4;
#X obj 14 119 DAdegrees~ 5;
#X obj 260 119 DAdegrees~ 6;
#X obj 514 119 DAdegrees~ 7;
#X obj 762 119 DAdegrees~ 8;
#X obj 513 198 DAdegrees~ 11;
#X obj 761 198 DAdegrees~ 12;
#X msg 227 348 2 - Sound ctrl (cut / raise vol);
#X msg 223 278 1 3, f 12;
#X obj 228 430 list trim;
#N canvas 27 0 976 729 list-splitter 0;
#X obj 128 170 list split;
#X obj 230 231 list split;
#X obj 128 205 list trim;
#X obj 299 269 list split;
#X obj 338 316 list split;
#X obj 188 354 f;
#X obj 287 367 f;
#X obj 339 401 f;
#X obj 37 109 t b a, f 15;
#X obj 37 225 t b b b b, f 13;
#X obj 100 327 f;
#N canvas -330 234 1920 1142 gate4 0;
#X obj 168 81 inlet;
#X obj 169 176 sel 1;
#X obj 196 219 sel 2;
#X obj 229 260 sel 3;
#X obj 257 302 sel 4;
#X msg 70 213 1;
#X msg 107 217 0;
#X msg 100 283 1;
#X msg 143 278 0;
#X msg 123 332 1;
#X msg 160 336 0;
#X msg 133 385 1;
#X msg 170 389 0;
#X obj 34 273 spigot;
#X obj 46 339 spigot;
#X obj 55 380 spigot;
#X obj 127 452 spigot;
#X obj 14 585 outlet;
#X obj 86 589 outlet;
#X obj 192 589 outlet;
#X obj 272 592 outlet;
#X obj 79 81 inlet;
#X connect 0 0 1 0;
#X connect 1 0 5 0;
#X connect 1 1 2 0;
#X connect 1 1 6 0;
#X connect 2 0 7 0;
#X connect 2 1 3 0;
#X connect 2 1 8 0;
#X connect 3 0 9 0;
#X connect 3 1 4 0;
#X connect 3 1 10 0;
#X connect 4 0 11 0;
#X connect 4 1 12 0;
#X connect 5 0 13 1;
#X connect 6 0 13 1;
#X connect 7 0 14 1;
#X connect 8 0 14 1;
#X connect 9 0 15 1;
#X connect 10 0 15 1;
#X connect 11 0 16 1;
#X connect 12 0 16 1;
#X connect 13 0 17 0;
#X connect 14 0 18 0;
#X connect 15 0 19 0;
#X connect 16 0 20 0;
#X connect 21 0 13 0;
#X connect 21 0 14 0;
#X connect 21 0 15 0;
#X connect 21 0 16 0;
#X restore 46 464 pd gate4;
#N canvas -330 234 1920 1142 gate4 0;
#X obj 168 81 inlet;
#X obj 169 176 sel 1;
#X obj 196 219 sel 2;
#X obj 229 260 sel 3;
#X obj 257 302 sel 4;
#X msg 70 213 1;
#X msg 107 217 0;
#X msg 100 283 1;
#X msg 143 278 0;
#X msg 123 332 1;
#X msg 160 336 0;
#X msg 133 385 1;
#X msg 170 389 0;
#X obj 34 273 spigot;
#X obj 46 339 spigot;
#X obj 55 380 spigot;
#X obj 127 452 spigot;
#X obj 14 585 outlet;
#X obj 86 589 outlet;
#X obj 192 589 outlet;
#X obj 272 592 outlet;
#X obj 79 81 inlet;
#X connect 0 0 1 0;
#X connect 1 0 5 0;
#X connect 1 1 2 0;
#X connect 1 1 6 0;
#X connect 2 0 7 0;
#X connect 2 1 3 0;
#X connect 2 1 8 0;
#X connect 3 0 9 0;
#X connect 3 1 4 0;
#X connect 3 1 10 0;
#X connect 4 0 11 0;
#X connect 4 1 12 0;
#X connect 5 0 13 1;
#X connect 6 0 13 1;
#X connect 7 0 14 1;
#X connect 8 0 14 1;
#X connect 9 0 15 1;
#X connect 10 0 15 1;
#X connect 11 0 16 1;
#X connect 12 0 16 1;
#X connect 13 0 17 0;
#X connect 14 0 18 0;
#X connect 15 0 19 0;
#X connect 16 0 20 0;
#X connect 21 0 13 0;
#X connect 21 0 14 0;
#X connect 21 0 15 0;
#X connect 21 0 16 0;
#X restore 164 476 pd gate4;
#N canvas -330 234 1920 1142 gate4 0;
#X obj 168 81 inlet;
#X obj 169 176 sel 1;
#X obj 196 219 sel 2;
#X obj 229 260 sel 3;
#X obj 257 302 sel 4;
#X msg 70 213 1;
#X msg 107 217 0;
#X msg 100 283 1;
#X msg 143 278 0;
#X msg 123 332 1;
#X msg 160 336 0;
#X msg 133 385 1;
#X msg 170 389 0;
#X obj 34 273 spigot;
#X obj 46 339 spigot;
#X obj 55 380 spigot;
#X obj 127 452 spigot;
#X obj 14 585 outlet;
#X obj 86 589 outlet;
#X obj 192 589 outlet;
#X obj 272 592 outlet;
#X obj 79 81 inlet;
#X connect 0 0 1 0;
#X connect 1 0 5 0;
#X connect 1 1 2 0;
#X connect 1 1 6 0;
#X connect 2 0 7 0;
#X connect 2 1 3 0;
#X connect 2 1 8 0;
#X connect 3 0 9 0;
#X connect 3 1 4 0;
#X connect 3 1 10 0;
#X connect 4 0 11 0;
#X connect 4 1 12 0;
#X connect 5 0 13 1;
#X connect 6 0 13 1;
#X connect 7 0 14 1;
#X connect 8 0 14 1;
#X connect 9 0 15 1;
#X connect 10 0 15 1;
#X connect 11 0 16 1;
#X connect 12 0 16 1;
#X connect 13 0 17 0;
#X connect 14 0 18 0;
#X connect 15 0 19 0;
#X connect 16 0 20 0;
#X connect 21 0 13 0;
#X connect 21 0 14 0;
#X connect 21 0 15 0;
#X connect 21 0 16 0;
#X restore 302 463 pd gate4;
#N canvas 259 393 450 300 scene-change 0;
#X obj 64 127 s scene-active;
#X obj 54 58 inlet;
#X connect 1 0 0 0;
#X restore 46 505 pd scene-change;
#X obj 41 64 inlet, f 15;
#N canvas 259 393 450 300 vol-ctl 0;
#X obj 54 58 inlet;
#X obj 64 127 s change-global-vol;
#X obj 53 92 clip 0 1;
#X connect 0 0 2 0;
#X connect 2 0 1 0;
#X restore 65 533 pd vol-ctl;
#N canvas 174 388 450 300 change-group-pos 0;
#X obj 54 58 inlet;
#X obj 54 83 s change-global-vol;
#X connect 0 0 1 0;
#X restore 95 574 pd change-group-pos;
#X obj 327 75 loadbang, f 15;
#X msg 356 129 1;
#X connect 0 0 2 0;
#X connect 0 1 1 0;
#X connect 1 0 5 1;
#X connect 1 1 3 0;
#X connect 2 0 10 1;
#X connect 3 0 6 1;
#X connect 3 1 4 0;
#X connect 4 0 7 1;
#X connect 5 0 11 0;
#X connect 6 0 12 0;
#X connect 7 0 13 0;
#X connect 8 0 9 0;
#X connect 8 1 0 0;
#X connect 9 0 7 0;
#X connect 9 1 6 0;
#X connect 9 2 5 0;
#X connect 9 3 10 0;
#X connect 10 0 11 1;
#X connect 10 0 12 1;
#X connect 10 0 13 1;
#X connect 11 0 14 0;
#X connect 11 1 16 0;
#X connect 11 2 17 0;
#X connect 15 0 8 0;
#X connect 18 0 19 0;
#X connect 19 0 0 1;
#X connect 19 0 1 1;
#X connect 19 0 3 1;
#X connect 19 0 4 1;
#X restore 329 632 pd list-splitter;
#N canvas 31 52 942 729 manage-scene 0;
#X obj 50 19 r scene-active;
#X obj 71 368 s change-global-vol;
#X obj 63 98 sel 1;
#X obj 126 133 sel 2;
#X msg 93 219 1;
#X msg 156 307 1;
#X obj 155 266 sel 3;
#X obj 187 449 s wind-active;
#X msg 213 406 0;
#N canvas 207 208 649 725 ambience 0;
#X obj 120 428 send;
#X obj 150 295 makefilename dog%d.aif;
#X obj 147 333 list prepend symbol;
#X obj 140 368 list trim;
#X obj 132 234 t f f b;
#X msg 168 268 set %d-set-deg;
#X obj 412 436 send;
#X obj 442 303 makefilename dog%d.aif;
#X obj 439 341 list prepend symbol;
#X obj 432 376 list trim;
#X obj 424 242 t f f b;
#N canvas -8 -8 1366 725 focus-pre 0;
#X obj 15 12 inlet;
#X obj 18 268 outlet;
#X obj 15 48 sel 1 2 3 4 5 6 7 8 9 10 11 12, f 204;
#X msg 15 100 3.5;
#X connect 0 0 2 0;
#X connect 2 0 3 0;
#X connect 2 1 3 0;
#X connect 2 2 3 0;
#X connect 2 3 3 0;
#X connect 2 4 3 0;
#X connect 2 5 3 0;
#X connect 2 6 3 0;
#X connect 2 7 3 0;
#X connect 2 8 3 0;
#X connect 2 9 3 0;
#X connect 2 10 3 0;
#X connect 2 11 3 0;
#X connect 3 0 1 0;
#X restore 359 302 pd focus-pre;
#N canvas 293 199 1366 725 deg-pre 0;
#X obj 15 12 inlet;
#X obj 18 268 outlet;
#X msg 15 100 1;
#X obj 15 49 sel 1 2 3 4 5 6 7 8 9 10 11 12, f 204;
#X msg 106 91 60;
#X msg 175 93 200;
#X msg 294 99 120;
#X msg 1058 108 190;
#X msg 1002 110 170;
#X msg 397 94 340;
#X msg 499 90 350;
#X msg 814 95 100;
#X msg 916 91 90;
#X msg 625 89 300;
#X msg 727 85 320;
#X connect 0 0 3 0;
#X connect 2 0 1 0;
#X connect 3 0 2 0;
#X connect 3 1 4 0;
#X connect 3 2 5 0;
#X connect 3 3 6 0;
#X connect 3 4 9 0;
#X connect 3 5 10 0;
#X connect 3 6 13 0;
#X connect 3 7 14 0;
#X connect 3 8 11 0;
#X connect 3 9 12 0;
#X connect 3 10 8 0;
#X connect 3 11 7 0;
#X connect 4 0 1 0;
#X connect 5 0 1 0;
#X connect 6 0 1 0;
#X connect 7 0 1 0;
#X connect 8 0 1 0;
#X connect 10 0 1 0;
#X connect 11 0 1 0;
#X connect 12 0 1 0;
#X connect 13 0 1 0;
#X connect 14 0 1 0;
#X restore 67 294 pd deg-pre;
#X msg 460 276 set %d-set-focus;
#X msg 272 94 12;
#X obj 198 58 inlet;
#X msg 320 97 12;
#X obj 197 130 DLUzi, f 10;
#X connect 1 0 2 0;
#X connect 2 0 3 0;
#X connect 3 0 0 1;
#X connect 4 0 12 0;
#X connect 4 1 1 0;
#X connect 4 2 5 0;
#X connect 5 0 1 0;
#X connect 7 0 8 0;
#X connect 8 0 9 0;
#X connect 9 0 6 1;
#X connect 10 0 11 0;
#X connect 10 1 7 0;
#X connect 10 2 13 0;
#X connect 11 0 6 0;
#X connect 12 0 0 0;
#X connect 13 0 7 0;
#X connect 14 0 17 0;
#X connect 15 0 14 0;
#X connect 17 1 4 0;
#X connect 17 2 10 0;
#X restore 531 347 pd ambience;
#X obj 477 306 bng 15 250 50 0 empty empty empty 17 7 0 10 -262144
-1 -1;
#X obj 219 331 t b b;
#X obj 330 764 send;
#X obj 344 622 makefilename dog%d.aif;
#X obj 334 695 list trim;
#X obj 327 484 DLUzi, f 21;
#X msg 362 595 set %d-play;
#X obj 326 561 t b f b;
#X msg 262 627 1;
#X obj 343 666 list prepend symbol;
#X obj 455 357 s stopall;
#X obj 92 183 t b b;
#X obj 30 168 t b b;
#X msg 202 5 1;
#X msg 207 35 2;
#X msg 215 66 3;
#X msg 49 293 0.2;
#X obj 10 477 s 52-play;
#X obj 23 507 s 53-play;
#X obj 32 555 s 54-play;
#X obj 45 585 s 55-play;
#X msg 20 416 1;
#X obj 529 283 loadbang;
#X obj 3 229 t b b;
#X msg 326 436 11;
#X obj 328 526 + 44;
#X obj 324 371 t b;
#X msg 226 103 0;
#X obj 72 428 tgl 15 0 empty empty empty 17 7 0 10 -262144 -1 -1 0
1;
#X connect 0 0 2 0;
#X connect 2 0 8 0;
#X connect 2 0 22 0;
#X connect 2 1 3 0;
#X connect 3 0 21 0;
#X connect 3 1 6 0;
#X connect 4 0 1 0;
#X connect 4 0 7 0;
#X connect 5 0 1 0;
#X connect 6 0 5 0;
#X connect 6 0 8 0;
#X connect 6 0 11 0;
#X connect 6 1 36 0;
#X connect 8 0 7 0;
#X connect 10 0 9 0;
#X connect 11 0 34 0;
#X connect 11 1 10 0;
#X connect 13 0 19 0;
#X connect 14 0 12 1;
#X connect 15 0 35 0;
#X connect 16 0 13 0;
#X connect 17 0 18 0;
#X connect 17 1 13 0;
#X connect 17 2 16 0;
#X connect 18 0 12 0;
#X connect 19 0 14 0;
#X connect 21 0 4 0;
#X connect 21 1 20 0;
#X connect 22 0 33 0;
#X connect 22 1 20 0;
#X connect 23 0 2 0;
#X connect 24 0 2 0;
#X connect 25 0 2 0;
#X connect 26 0 1 0;
#X connect 31 0 27 0;
#X connect 31 0 28 0;
#X connect 31 0 29 0;
#X connect 31 0 30 0;
#X connect 32 0 10 0;
#X connect 33 0 31 0;
#X connect 33 1 26 0;
#X connect 34 0 15 0;
#X connect 35 0 17 0;
#X connect 36 0 20 0;
#X connect 37 0 2 0;
#X connect 38 0 27 0;
#X restore 287 473 pd manage-scene;
#X obj 923 263 r change-global-vol;
#X obj 923 287 * 100;
#X msg 225 323 1 = intro \, 2 = 3D \, 3 = 2.5D;
#X obj 312 585 list trim;
#X msg 559 350 1;
#X msg 564 380 2;
#X msg 572 411 3;
#X msg 583 448 0;
#X obj 526 519 s scene-active;
#X connect 1 0 2 0;
#X connect 2 0 0 0;
#X connect 6 0 50 0;
#X connect 7 0 51 0;
#X connect 8 0 52 0;
#X connect 9 0 53 0;
#X connect 10 0 54 0;
#X connect 11 0 55 0;
#X connect 12 0 56 0;
#X connect 13 0 57 0;
#X connect 15 0 16 0;
#X connect 15 0 26 0;
#X connect 16 0 1 0;
#X connect 17 0 18 0;
#X connect 17 0 19 0;
#X connect 17 0 68 0;
#X connect 19 0 20 0;
#X connect 20 0 21 0;
#X connect 22 0 19 0;
#X connect 23 0 17 0;
#X connect 25 0 24 0;
#X connect 26 0 25 0;
#X connect 33 0 45 0;
#X connect 34 0 49 0;
#X connect 39 0 58 0;
#X connect 40 0 59 0;
#X connect 65 0 66 0;
#X connect 66 0 1 0;
#X connect 68 0 63 0;
#X connect 69 0 73 0;
#X connect 70 0 73 0;
#X connect 71 0 73 0;
#X connect 72 0 73 0;
