#N canvas 126 66 660 544 10;
#X obj 355 395 send;
#X msg 190 388 symbol help-send2;
#X msg 190 388 symbol help-send2;
#X msg 190 388 symbol help-send2;
#X msg 145 77 symbol \$1-set-throw-group;
#X obj 134 129 makefilename;
#X obj 371 236 makefilename dog%d.aif;
#X obj 365 280 list prepend symbol;
#X obj 375 117 t f b;
#X floatatom 367 72 5 0 0 0 - - -, f 5;
#X msg 405 183 set %d-set-throw-group;
#X obj 357 327 list trim;
#X floatatom 284 321 5 0 0 0 - - -, f 5;
#X connect 6 0 7 0;
#X connect 7 0 11 0;
#X connect 8 0 6 0;
#X connect 8 1 10 0;
#X connect 9 0 8 0;
#X connect 10 0 6 0;
#X connect 11 0 0 1;
#X connect 12 0 0 0;
