#N canvas 701 193 339 419 10;
#X obj 46 15 inlet;
#X obj 46 184 until;
#X obj 100 211 + 1;
#X msg 89 128 0;
#X obj 44 220 i;
#X obj 44 307 outlet;
#X obj 126 259 sel;
#X obj 46 74 t float b float;
#X obj 46 125 i;
#X obj 133 124 i;
#X obj 133 164 - 1;
#X obj 46 46 clip 1 1e+007;
#X obj 109 309 outlet;
#X obj 190 319 outlet;
#X connect 0 0 11 0;
#X connect 1 0 4 0;
#X connect 2 0 4 1;
#X connect 3 0 4 1;
#X connect 4 0 2 0;
#X connect 4 0 6 0;
#X connect 4 0 5 0;
#X connect 4 0 12 0;
#X connect 4 0 13 0;
#X connect 6 0 1 1;
#X connect 7 0 8 0;
#X connect 7 1 3 0;
#X connect 7 2 9 0;
#X connect 8 0 1 0;
#X connect 9 0 10 0;
#X connect 10 0 6 1;
#X connect 11 0 7 0;
