#N canvas -81 15 1362 721 10;
#X obj 333 420 soundfiler;
#X obj 331 276 openpanel;
#X obj 331 307 list append;
#X msg 124 324 stop;
#X obj 104 470 r stopall;
#X obj 400 188 makefilename dog%d.aif;
#X obj 551 46 bng 15 250 50 0 empty empty empty 17 7 0 10 -262144 -1
-1;
#X obj 394 278 list append;
#X obj 492 156 t f f;
#X msg 368 218 set \$1;
#X obj 551 16 loadbang;
#X obj 488 125 f \$1;
#X obj 551 71 t b b;
#N canvas -8 -8 1362 721 (subpatch) 0;
#X array mono-sound-\$1 2e+007 float 2;
#X coords 0 721 2e+007 720 200 140 0;
#X restore 31 631 graph;
#X obj 1129 244 list prepend set;
#X obj 1129 274 list trim;
#X obj 1092 155 sel 0 1 2 3 4 5, f 37;
#X obj 1129 309 send \$1-destlabel;
#X obj 331 250 receive \$1-open;
#X obj 43 17 bng 15 250 50 0 \$1-open empty empty 17 7 0 10 -258113
-1 -1;
#X text 0 1 PLAY;
#X text 30 2 LOAD;
#N canvas -8 -8 1362 721 dests 0;
#X obj 73 24 inlet;
#X obj 74 60 sel 0 1 2 3 4 5, f 37;
#X obj 54 443 outlet;
#X msg 52 92 set Chan1;
#X msg 105 121 set Chan2;
#X msg 141 148 set Chan3;
#X msg 178 197 set Chan4;
#X msg 257 214 set Chan5;
#X msg 337 232 set Chan6;
#X connect 0 0 1 0;
#X connect 1 0 3 0;
#X connect 1 1 4 0;
#X connect 1 2 5 0;
#X connect 1 3 6 0;
#X connect 1 4 7 0;
#X connect 1 5 8 0;
#X connect 3 0 2 0;
#X connect 4 0 2 0;
#X connect 5 0 2 0;
#X connect 6 0 2 0;
#X connect 7 0 2 0;
#X connect 8 0 2 0;
#X restore 1025 119 pd dests;
#X obj 15 17 tgl 15 0 \$1-playtoggle \$1-play empty 17 7 0 10 -4034
-1 -1 0 1;
#X obj 71 261 sel 0 1;
#X obj 70 221 receive \$1-playtoggle;
#X obj 1090 118 receive \$1-dest;
#X obj 68 362 tabplay~ mono-sound-\$1;
#X msg 532 122 set mono-sound-%d;
#X obj 585 196 route float;
#X floatatom 679 192 5 0 0 0 - - -, f 5;
#X obj 605 253 send ss;
#X obj 755 125 send \$1-set-dest;
#X obj 755 61 loadbang;
#X msg 755 94 0;
#X msg 1083 189 Chan1;
#X obj 684 370 list length;
#X obj 609 334 t l l, f 13;
#X obj 684 399 - 1;
#X obj 609 426 list split, f 13;
#X obj 646 495 s \$1-wavname;
#X obj 685 448 loadbang;
#X obj 609 306 s2l /;
#X msg 685 472 set NO_FILE;
#X symbolatom 1 40 28 0 0 0 - #1-wavname -, f 28;
#X msg 1127 188 Chan2;
#X msg 1165 190 Chan3;
#X msg 1200 188 Chan4;
#X msg 1238 192 Chan5;
#X msg 1283 193 Chan6;
#X obj 104 450 outlet~;
#X obj 278 504 r current-note;
#X obj 106 16 bng 15 250 50 0 \$1-get-bang empty SET 0 -7 0 10 -262144
-1 -1;
#X obj 66 17 nbx 3 14 -1e+037 1e+037 0 0 \$1-sel-note \$1-set-note
NOTE 4 -8 0 10 -262144 -1 -1 0 256;
#X obj 263 575 s \$1-set-note;
#X obj 263 540 f;
#X obj 263 478 r \$1-get-bang;
#X obj 397 612 s \$1-play;
#X obj 197 409 bng 15 250 50 0 empty empty empty 17 7 0 10 -262144
-1 -1;
#X msg 197 587 0;
#X obj 537 421 loadbang;
#X msg 539 624 999;
#X obj 540 585 delay 200;
#X obj 571 539 s \$1-channum;
#X obj 570 448 f \$1;
#X obj 588 502 f \$1;
#X obj 174 40 nbx 3 14 0 999 0 0 empty \$1-channum NO. 40 8 0 10 -262144
-1 -1 0 256;
#X obj 784 252 f 1;
#X obj 782 297 s \$1-play;
#X obj 397 569 sel 999;
#X obj 782 219 r play-test;
#X obj 240 135 receive seek;
#X msg 333 387 read -maxsize 3e+007 -resize \$1 \$2;
#X obj 78 407 GlobalVolume~;
#X connect 1 0 2 0;
#X connect 1 0 42 0;
#X connect 2 0 72 0;
#X connect 3 0 27 0;
#X connect 4 0 59 0;
#X connect 5 0 9 0;
#X connect 5 0 7 0;
#X connect 6 0 12 0;
#X connect 7 0 2 1;
#X connect 8 0 5 0;
#X connect 8 1 29 0;
#X connect 10 0 6 0;
#X connect 11 0 8 0;
#X connect 12 0 11 0;
#X connect 12 1 28 0;
#X connect 14 0 15 0;
#X connect 15 0 17 0;
#X connect 16 0 35 0;
#X connect 16 1 45 0;
#X connect 16 2 46 0;
#X connect 16 3 47 0;
#X connect 16 4 48 0;
#X connect 16 5 49 0;
#X connect 18 0 1 0;
#X connect 24 0 3 0;
#X connect 24 1 27 0;
#X connect 25 0 24 0;
#X connect 26 0 16 0;
#X connect 26 0 22 0;
#X connect 27 0 73 0;
#X connect 27 1 58 0;
#X connect 28 0 5 0;
#X connect 29 0 31 0;
#X connect 30 0 31 0;
#X connect 33 0 34 0;
#X connect 34 0 32 0;
#X connect 35 0 14 0;
#X connect 36 0 38 0;
#X connect 37 0 39 0;
#X connect 37 1 36 0;
#X connect 38 0 39 1;
#X connect 39 1 40 0;
#X connect 41 0 43 0;
#X connect 42 0 37 0;
#X connect 43 0 40 0;
#X connect 45 0 14 0;
#X connect 46 0 14 0;
#X connect 47 0 14 0;
#X connect 48 0 14 0;
#X connect 49 0 14 0;
#X connect 51 0 55 1;
#X connect 51 0 69 0;
#X connect 55 0 54 0;
#X connect 56 0 55 0;
#X connect 58 0 59 0;
#X connect 59 0 57 0;
#X connect 60 0 62 0;
#X connect 60 0 64 0;
#X connect 61 0 69 1;
#X connect 62 0 61 0;
#X connect 64 0 63 0;
#X connect 67 0 68 0;
#X connect 69 0 57 0;
#X connect 70 0 67 0;
#X connect 71 0 27 0;
#X connect 72 0 0 0;
#X connect 73 0 50 0;
#X coords 0 -1 1 1 250 58 2 0 0;
