#N canvas -8 -8 1366 725 10;
#X obj 52 58 list split 1;
#X obj 101 101 list split 1;
#X obj 170 144 list split 1;
#X obj 226 179 list split 1;
#X obj 268 228 list split 1;
#X obj 317 271 list split 1;
#X obj 386 314 list split 1;
#X obj 442 349 list split 1;
#X obj 475 389 list split 1;
#X obj 524 432 list split 1;
#X obj 593 475 list split 1;
#X obj 649 510 list split 1;
#X obj 691 559 list split 1;
#X obj 740 602 list split 1;
#X obj 809 645 list split 1;
#X obj 865 680 list split 1;
#X obj 151 672 outlet;
#X obj 46 12 inlet;
#X connect 0 0 16 0;
#X connect 0 1 1 0;
#X connect 1 0 16 0;
#X connect 1 1 2 0;
#X connect 2 0 16 0;
#X connect 2 1 3 0;
#X connect 3 0 16 0;
#X connect 3 1 4 0;
#X connect 4 0 16 0;
#X connect 4 1 5 0;
#X connect 5 0 16 0;
#X connect 5 1 6 0;
#X connect 6 0 16 0;
#X connect 6 1 7 0;
#X connect 7 0 16 0;
#X connect 7 1 8 0;
#X connect 8 0 16 0;
#X connect 8 1 9 0;
#X connect 9 0 16 0;
#X connect 9 1 10 0;
#X connect 10 0 16 0;
#X connect 10 1 11 0;
#X connect 11 0 16 0;
#X connect 11 1 12 0;
#X connect 12 0 16 0;
#X connect 12 1 13 0;
#X connect 13 0 16 0;
#X connect 13 1 14 0;
#X connect 14 0 16 0;
#X connect 14 1 15 0;
#X connect 15 0 16 0;
#X connect 17 0 0 0;
