#N canvas 0 50 450 455 10;
#X obj 42 129 list-drip;
#X obj 80 229 i;
#X obj 106 229 + 1;
#X floatatom 79 257 5 0 0 0 - - -, f 5;
#X obj 80 207 b, f 1;
#X msg 119 129 0;
#X obj 42 99 t l l;
#X obj 79 282 sel 0;
#X obj 42 168 t a a;
#X obj 106 306 - 1;
#X obj 106 350 outlet;
#X obj 42 387 outlet;
#X obj 42 43 inlet;
#X text 118 45 < takes an input list;
#X text 177 128 splits it up;
#X text 171 293 and outputs one by one:;
#X text 176 350 Right: the index of the symbol;
#X text 175 385 Left: then the symbol itself;
#X connect 0 0 8 0;
#X connect 1 0 2 0;
#X connect 1 0 3 0;
#X connect 2 0 1 1;
#X connect 3 0 7 0;
#X connect 4 0 1 0;
#X connect 5 0 1 0;
#X connect 6 0 0 0;
#X connect 6 1 5 0;
#X connect 7 1 9 0;
#X connect 8 0 11 0;
#X connect 8 1 4 0;
#X connect 9 0 10 0;
#X connect 12 0 6 0;
