#N canvas -8 -8 1366 725 10;
#X obj 333 420 soundfiler, f 12;
#X obj 332 256 openpanel;
#X obj 336 344 list append;
#X msg 124 324 stop;
#X obj 304 592 r stopall;
#X obj 551 46 bng 15 250 50 0 empty empty empty 17 7 0 10 -262144 -1
-1;
#X obj 468 307 list append;
#X obj 492 156 t f f;
#X obj 551 16 loadbang;
#X obj 488 125 f \$1;
#X obj 551 71 t b b;
#N canvas -8 -8 1362 721 (subpatch) 0;
#X array mono-sound-\$1 2.4696e+006 float 2;
#X coords 0 721 2.4696e+006 720 200 140 0;
#X restore 107 667 graph;
#X obj 332 230 receive \$1-open;
#X obj 43 17 bng 15 250 50 0 \$1-open empty empty 17 7 0 10 -258113
-1 -1;
#X text 0 1 PLAY;
#X text 30 2 LOAD;
#X obj 15 17 tgl 15 0 \$1-playtoggle \$1-play empty 17 7 0 10 -4034
-1 -1 0 1;
#X obj 71 261 sel 0 1;
#X obj 70 221 receive \$1-playtoggle;
#X obj 68 361 tabplay~ mono-sound-\$1;
#X msg 601 161 set mono-sound-%d;
#X obj 843 347 list length;
#X obj 768 311 t l l, f 13;
#X obj 843 376 - 1;
#X obj 768 403 list split, f 13;
#X obj 805 472 s \$1-wavname;
#X obj 844 425 loadbang;
#X msg 844 449 set NO_FILE;
#X symbolatom 1 40 28 0 0 0 - #1-wavname -, f 28;
#X obj 251 676 s \$1-play;
#X obj 197 409 bng 15 250 50 0 empty empty empty 17 7 0 10 -262144
-1 -1;
#X msg 244 617 0;
#X obj 537 421 loadbang;
#X obj 571 539 s \$1-channum;
#X obj 570 448 f \$1;
#X obj 588 502 f \$1;
#X obj 174 40 nbx 2 14 0 999 0 0 empty \$1-channum NO. 32 8 0 10 -262144
-1 -1 45 256;
#X msg 333 387 read -maxsize 3e+007 -resize \$1 \$2;
#X obj 43 615 throw~ chan1;
#N canvas -8 -8 1366 725 throwmsg 0;
#X obj 155 367 makefilename chan%d;
#X obj 181 410 list prepend;
#X msg 297 382 set;
#X obj 158 458 list trim;
#X obj 312 355 loadbang;
#X obj 135 45 inlet;
#X obj 160 519 outlet;
#X connect 0 0 1 0;
#X connect 1 0 3 0;
#X connect 2 0 1 1;
#X connect 3 0 6 0;
#X connect 4 0 2 0;
#X connect 5 0 0 0;
#X restore 80 507 pd throwmsg;
#X obj 232 7 vsl 15 44 0 1 0 0 \$1-mono-vol \$1-set-mono-vol empty
0 -9 0 10 -262144 -1 -1 2150 1;
#X obj 51 445 *~;
#X obj 174 23 nbx 2 14 1 12 0 0 \$1-throw-group \$1-set-throw-group
GRP 32 8 0 10 -262144 -1 -1 6 256;
#X obj 237 193 receive \$1-throw-group;
#X obj 191 318 receive \$1-mono-vol;
#X obj 831 207 receive \$1-load-file;
#X obj 638 823 send;
#X obj 728 730 makefilename dog%d.aif;
#X obj 725 768 list prepend symbol;
#X msg 746 703 set %d-set-throw-group;
#X obj 718 803 list trim;
#N canvas -8 -8 1366 725 grp-pre 0;
#X obj 15 12 inlet;
#X obj 54 356 outlet;
#X msg 54 197 1;
#X msg 681 226 2;
#X msg 713 233 3;
#X msg 747 233 4;
#X obj 15 49 sel 1 2 3 4 5 6 7 8 9 10 11 12 13 14 15 16 17 18 19 20
21 22 23 24 25 26 27 28 29 30 31 32 33 34 35 36 37 38 39, f 204;
#X msg 646 414 SOUNDS/RUSHING_WIND_1.wav;
#X msg 656 443 SOUNDS/RUSHING_WIND_2.wav;
#X msg 655 467 SOUNDS/RUSHING_WIND_3.wav;
#X msg 656 490 SOUNDS/STREAM_1.wav;
#X msg 663 513 SOUNDS/STREAM_2.wav;
#X msg 671 536 SOUNDS/WIND_1.wav;
#X msg 685 564 SOUNDS/WIND_2.wav;
#X msg 813 425 SOUNDS/WIND_3.wav;
#X msg 846 451 SOUNDS/WIND_4.wav;
#X msg 848 479 SOUNDS/WIND_AND_RIVER_270_1.wav;
#X obj 664 292 sel 41 42 43 44 45 46 47 48 49 50 51 52 53 54 55 56
57 58 59 60, f 80;
#X msg 857 519 SOUNDS/WIND_AND_RIVER_270_2.wav;
#X msg 854 545 SOUNDS/CICADAS_AND_DUCKS_1.wav;
#X msg 856 569 SOUNDS/CICADAS_AND_DUCKS_2.wav;
#X msg 780 603 SOUNDS/RIVER_1.wav;
#X msg 917 601 SOUNDS/RIVER_2.wav;
#X msg 781 234 5;
#X msg 826 238 6;
#X msg 870 242 7;
#X msg 923 244 8;
#X obj 683 172 sel 41 42 43 44 45 46 47 48 49 50 51 52 53 54 55 56
57 58 59 60, f 94;
#X msg 983 241 9;
#X msg 1036 243 10;
#X msg 1076 245 11;
#X msg 1122 246 12;
#X connect 0 0 6 0;
#X connect 2 0 1 0;
#X connect 3 0 1 0;
#X connect 4 0 1 0;
#X connect 5 0 1 0;
#X connect 6 0 2 0;
#X connect 6 1 2 0;
#X connect 6 2 2 0;
#X connect 6 3 2 0;
#X connect 6 4 2 0;
#X connect 6 5 2 0;
#X connect 6 6 2 0;
#X connect 6 7 2 0;
#X connect 6 8 2 0;
#X connect 6 9 2 0;
#X connect 6 10 2 0;
#X connect 6 11 2 0;
#X connect 6 12 2 0;
#X connect 6 13 2 0;
#X connect 6 14 2 0;
#X connect 6 15 2 0;
#X connect 6 16 2 0;
#X connect 6 17 2 0;
#X connect 6 18 2 0;
#X connect 6 19 2 0;
#X connect 6 20 2 0;
#X connect 6 21 2 0;
#X connect 6 22 2 0;
#X connect 6 23 2 0;
#X connect 6 24 2 0;
#X connect 6 25 2 0;
#X connect 6 26 2 0;
#X connect 6 27 2 0;
#X connect 6 28 2 0;
#X connect 6 29 2 0;
#X connect 6 30 2 0;
#X connect 6 31 2 0;
#X connect 6 32 2 0;
#X connect 6 33 2 0;
#X connect 6 39 27 0;
#X connect 17 0 7 0;
#X connect 17 1 8 0;
#X connect 17 2 9 0;
#X connect 17 3 10 0;
#X connect 17 4 11 0;
#X connect 17 5 12 0;
#X connect 17 6 13 0;
#X connect 17 7 14 0;
#X connect 17 8 15 0;
#X connect 17 9 16 0;
#X connect 17 10 18 0;
#X connect 17 11 19 0;
#X connect 17 12 20 0;
#X connect 17 13 21 0;
#X connect 17 14 22 0;
#X connect 23 0 1 0;
#X connect 24 0 1 0;
#X connect 25 0 1 0;
#X connect 26 0 1 0;
#X connect 27 0 3 0;
#X connect 27 1 4 0;
#X connect 27 2 5 0;
#X connect 27 3 23 0;
#X connect 27 4 24 0;
#X connect 27 5 3 0;
#X connect 27 6 4 0;
#X connect 27 7 5 0;
#X connect 27 9 25 0;
#X connect 27 10 26 0;
#X connect 27 11 28 0;
#X connect 27 12 29 0;
#X connect 27 13 30 0;
#X connect 27 14 31 0;
#X connect 28 0 1 0;
#X connect 29 0 1 0;
#X connect 30 0 1 0;
#X connect 31 0 1 0;
#X restore 645 729 pd grp-pre;
#X obj 708 640 r \$1-channum;
#X obj 710 669 t f f b;
#X obj 927 821 send;
#X obj 1017 728 makefilename dog%d.aif;
#X obj 1014 766 list prepend symbol;
#X obj 1007 801 list trim;
#X obj 997 638 r \$1-channum;
#X obj 999 667 t f f b;
#X msg 1035 701 set %d-set-mono-vol;
#N canvas -8 -8 1366 725 vol-pre 0;
#X obj 15 12 inlet;
#X obj 15 49 sel 1 2 3 4 5 6 7 8 9 10 11 12 13 14 15 16 17 18 19 20
21 22 23 24 25 26 27 28 29 30 31 32 33 34 35 36 37 38 39 40, f 204
;
#X obj 180 675 outlet;
#X msg 60 327 1;
#X msg 256 626 0.5;
#X obj 859 230 sel 41 42 43 44 45 46 47 48 49 50 51 52 53 54 55 56
57 58 59 60 61 62 63 64;
#X connect 0 0 1 0;
#X connect 1 0 3 0;
#X connect 1 1 3 0;
#X connect 1 2 3 0;
#X connect 1 3 3 0;
#X connect 1 4 3 0;
#X connect 1 5 3 0;
#X connect 1 6 3 0;
#X connect 1 7 3 0;
#X connect 1 8 3 0;
#X connect 1 9 3 0;
#X connect 1 10 3 0;
#X connect 1 11 3 0;
#X connect 1 12 3 0;
#X connect 1 13 3 0;
#X connect 1 14 3 0;
#X connect 1 15 3 0;
#X connect 1 16 3 0;
#X connect 1 17 3 0;
#X connect 1 18 3 0;
#X connect 1 19 3 0;
#X connect 1 20 3 0;
#X connect 1 21 3 0;
#X connect 1 22 3 0;
#X connect 1 23 3 0;
#X connect 1 24 3 0;
#X connect 1 25 3 0;
#X connect 1 26 3 0;
#X connect 1 27 3 0;
#X connect 1 28 3 0;
#X connect 1 29 3 0;
#X connect 1 30 3 0;
#X connect 1 31 3 0;
#X connect 1 32 3 0;
#X connect 1 33 3 0;
#X connect 1 40 5 0;
#X connect 3 0 2 0;
#X connect 4 0 2 0;
#X connect 5 0 4 0;
#X connect 5 1 4 0;
#X connect 5 2 4 0;
#X connect 5 3 4 0;
#X connect 5 4 4 0;
#X connect 5 5 4 0;
#X connect 5 6 4 0;
#X connect 5 7 4 0;
#X connect 5 8 4 0;
#X connect 5 9 4 0;
#X connect 5 10 4 0;
#X connect 5 11 4 0;
#X connect 5 12 4 0;
#X connect 5 13 4 0;
#X connect 5 14 4 0;
#X connect 5 15 4 0;
#X connect 5 16 4 0;
#X connect 5 17 4 0;
#X connect 5 18 4 0;
#X connect 5 19 4 0;
#X connect 5 20 4 0;
#X connect 5 21 4 0;
#X connect 5 22 4 0;
#X connect 5 23 4 0;
#X connect 5 24 4 0;
#X restore 934 727 pd vol-pre;
#X obj 468 227 makefilename mono-sound-%d;
#X msg 665 80 1;
#N canvas -8 -8 1366 725 file-names 0;
#X obj 22 54 sel 1 2 3 4 5 6 7 8 9 10 11 12 13 14 15 16 17 18 19 20
21 22 23 24 25 26 27 28 29 30 31 32 33 34 35 36 37 38 39 40, f 204
;
#X obj 25 13 inlet;
#X obj 581 672 loadbang;
#X msg 585 703 set SOUNDS/%d;
#X obj 173 610 outlet;
#X obj 187 655 print;
#X msg 13 121 SOUNDS/02_ngaya_Wilbung.wav;
#X msg 43 151 SOUNDS/03_ngaya_ma_yibbun_ga_yidbung_murradjulb.wav;
#X msg 50 184 SOUNDS/04_ngaya_nangyilaburgay_ga_Buruberongal.wav;
#X msg 72 214 SOUNDS/05_ngaya_wumara_nura_ma.wav;
#X msg 81 246 SOUNDS/06_Daragule_Gadigal_Dharwawal_dah_ngyinu_nura.wav
;
#X msg 8 91 SOUNDS/01_Ngaya_wumara_wa_Gadigal_nura.wav;
#X msg 184 129 SOUNDS/07_ngaya_gawara_Wulamulu.wav;
#X msg 78 316 SOUNDS/08_ngaya_wingaru_da_Nura_ma.wav;
#X msg 81 341 SOUNDS/09_ngaya_Durubin_Nura_ma.wav;
#X msg 88 366 SOUNDS/10_Diya_dah_wingaru_nura_nunang_la_nung_ngyina_garriberri.wav
;
#X msg 87 406 SOUNDS/11_Biyall_yinyan_garriberri_wa_nura.wav;
#X msg 91 433 SOUNDS/12_Wawa_nin_garriberri_nura_dah.wav;
#X msg 100 458 SOUNDS/13_naa_ni_nin_Badagarng.wav;
#X msg 111 484 SOUNDS/14_Ngaya_Badagarng.wav;
#X msg 107 512 SOUNDS/15_ngyina_nangyilaburgay_ga_Iyura_wa.wav;
#X msg 462 89 SOUNDS/16_Iyura_gawi_wara_Jillung_byalla_ra_nura.wav
;
#X msg 461 129 SOUNDS/17_Jillung_byalla_waru_wulbung_nura_wa.wav;
#X msg 465 156 SOUNDS/18_Iyura_wa_gawi_da.wav;
#X msg 474 181 SOUNDS/19_warami_wellamabami.wav;
#X msg 485 207 SOUNDS/20_ngaya_Burramatta_ga.wav;
#X msg 481 235 SOUNDS/21_ngan_ngyinu_giyara.wav;
#X msg 489 262 SOUNDS/22_ngaya_Nambrimbrii.wav;
#X msg 511 289 SOUNDS/23_ngyina_wa_Mudjin_Marlin.wav;
#X msg 524 315 SOUNDS/24_Ngaya_ngyinu_Guwan.wav;
#X msg 541 343 SOUNDS/25_Ngaya_ngyinu_Wurrai.wav;
#X msg 523 370 SOUNDS/26_Bada_la_Bada_lalibyila.wav;
#X msg 537 411 SOUNDS/27_yera_la_yera_lalibylia.wav;
#X msg 807 162 SOUNDS/28_Ngaya_naa_ni_burrah.wav;
#X msg 806 202 SOUNDS/29_Nin_burrah_wa_nand.wav;
#X msg 810 229 SOUNDS/30_Nin_burrah_wa_ga_wallin_wullum_ma.wav;
#X msg 819 254 SOUNDS/31_Ngaya_ni_da_wallin.wav;
#X msg 830 280 SOUNDS/32_Nin_burrah_ma_wumara_da_warra_warra.wav;
#X msg 826 308 SOUNDS/33_Ngaya_naa_dane_nin_ngurra.wav;
#X msg 834 335 SOUNDS/34_Nin_garriberri_marri_da.wav;
#X msg 856 362 SOUNDS/35_Welcome.wav;
#X msg 861 455 SOUNDS/RUSHING_WIND_1.wav;
#X msg 871 484 SOUNDS/RUSHING_WIND_2.wav;
#X msg 870 508 SOUNDS/RUSHING_WIND_3.wav;
#X msg 871 531 SOUNDS/STREAM_1.wav;
#X msg 878 554 SOUNDS/STREAM_2.wav;
#X msg 886 577 SOUNDS/WIND_1.wav;
#X msg 900 605 SOUNDS/WIND_2.wav;
#X msg 1028 466 SOUNDS/WIND_3.wav;
#X msg 1061 492 SOUNDS/WIND_4.wav;
#X msg 1063 520 SOUNDS/WIND_AND_RIVER_270_1.wav;
#X obj 861 434 sel 41 42 43 44 45 46 47 48 49 50 51 52 53 54 55 56
57 58 59 60, f 80;
#X msg 1072 560 SOUNDS/WIND_AND_RIVER_270_2.wav;
#X msg 1069 586 SOUNDS/CICADAS_AND_DUCKS_1.wav;
#X msg 1071 610 SOUNDS/CICADAS_AND_DUCKS_2.wav;
#X msg 995 644 SOUNDS/RIVER_1.wav;
#X msg 1132 642 SOUNDS/RIVER_2.wav;
#X connect 0 0 11 0;
#X connect 0 1 6 0;
#X connect 0 2 7 0;
#X connect 0 3 8 0;
#X connect 0 4 9 0;
#X connect 0 5 10 0;
#X connect 0 6 12 0;
#X connect 0 7 13 0;
#X connect 0 8 14 0;
#X connect 0 9 15 0;
#X connect 0 10 16 0;
#X connect 0 11 17 0;
#X connect 0 12 18 0;
#X connect 0 13 19 0;
#X connect 0 14 20 0;
#X connect 0 15 21 0;
#X connect 0 16 22 0;
#X connect 0 17 23 0;
#X connect 0 18 24 0;
#X connect 0 19 25 0;
#X connect 0 20 26 0;
#X connect 0 21 27 0;
#X connect 0 22 28 0;
#X connect 0 23 29 0;
#X connect 0 24 30 0;
#X connect 0 25 31 0;
#X connect 0 26 32 0;
#X connect 0 27 33 0;
#X connect 0 28 34 0;
#X connect 0 29 35 0;
#X connect 0 30 36 0;
#X connect 0 31 37 0;
#X connect 0 32 38 0;
#X connect 0 33 39 0;
#X connect 0 34 40 0;
#X connect 0 40 51 0;
#X connect 1 0 0 0;
#X connect 2 0 3 0;
#X connect 6 0 4 0;
#X connect 7 0 4 0;
#X connect 8 0 4 0;
#X connect 9 0 4 0;
#X connect 10 0 4 0;
#X connect 11 0 4 0;
#X connect 12 0 4 0;
#X connect 13 0 4 0;
#X connect 14 0 4 0;
#X connect 15 0 4 0;
#X connect 16 0 4 0;
#X connect 17 0 4 0;
#X connect 18 0 4 0;
#X connect 19 0 4 0;
#X connect 20 0 4 0;
#X connect 21 0 4 0;
#X connect 22 0 4 0;
#X connect 23 0 4 0;
#X connect 24 0 4 0;
#X connect 25 0 4 0;
#X connect 26 0 4 0;
#X connect 27 0 4 0;
#X connect 28 0 4 0;
#X connect 29 0 4 0;
#X connect 30 0 4 0;
#X connect 31 0 4 0;
#X connect 32 0 4 0;
#X connect 33 0 4 0;
#X connect 34 0 4 0;
#X connect 35 0 4 0;
#X connect 36 0 4 0;
#X connect 37 0 4 0;
#X connect 38 0 4 0;
#X connect 39 0 4 0;
#X connect 40 0 4 0;
#X connect 41 0 4 0;
#X connect 42 0 4 0;
#X connect 43 0 4 0;
#X connect 44 0 4 0;
#X connect 45 0 4 0;
#X connect 46 0 4 0;
#X connect 47 0 4 0;
#X connect 48 0 4 0;
#X connect 49 0 4 0;
#X connect 50 0 4 0;
#X connect 51 0 41 0;
#X connect 51 1 42 0;
#X connect 51 2 43 0;
#X connect 51 3 44 0;
#X connect 51 4 45 0;
#X connect 51 5 46 0;
#X connect 51 6 47 0;
#X connect 51 7 48 0;
#X connect 51 8 49 0;
#X connect 51 9 50 0;
#X connect 51 10 52 0;
#X connect 51 11 53 0;
#X connect 51 12 54 0;
#X connect 51 13 55 0;
#X connect 51 14 56 0;
#X connect 52 0 4 0;
#X connect 53 0 4 0;
#X connect 54 0 4 0;
#X connect 55 0 4 0;
#X connect 56 0 4 0;
#X restore 1216 738 pd file-names;
#X obj 1238 888 send;
#X obj 1332 768 list prepend symbol;
#X obj 1325 803 list trim;
#X obj 1317 669 t f f b;
#X msg 1353 703 set %d-load-file;
#X obj 1303 623 f \$1;
#X obj 63 17 bng 15 250 50 0 \$1-manual-load empty empty 17 7 0 10
-258113 -1 -1;
#X obj 1292 548 receive \$1-manual-load;
#X obj 768 283 s2l /;
#X obj 1336 730 makefilename %d-load-file;
#X obj 270 553 spigot;
#X obj 182 546 spigot;
#X msg 192 617 1;
#X obj 293 466 sel 0 1;
#X msg 348 519 0;
#X msg 310 508 1;
#X obj 227 441 receive \$1-loop-toggle;
#X obj 87 17 tgl 15 0 \$1-loop-toggle \$1-set-loop LOOP 20 7 0 10 -262144
-1 -1 0 1;
#X obj 1110 505 receive load-all;
#X obj 626 1053 send;
#X obj 716 960 makefilename dog%d.aif;
#X obj 713 998 list prepend symbol;
#X obj 706 1033 list trim;
#X obj 696 870 r \$1-channum;
#X obj 698 899 t f f b;
#X msg 734 933 set %d-set-loop;
#X obj 1142 1046 send \$1-wavname;
#X obj 1138 976 list prepend set;
#X obj 1141 1011 list trim;
#N canvas -8 -8 1366 725 loop-pre 0;
#X obj 15 12 inlet;
#X obj 15 49 sel 1 2 3 4 5 6 7 8 9 10 11 12 13 14 15 16 17 18 19 20
21 22 23 24 25 26 27 28 29 30 31 32 33 34 35 36 37 38 39 40, f 204
;
#X obj 53 256 outlet;
#X msg 54 197 0;
#X obj 281 185 sel 41 42 43 44 45 46 47 48, f 33;
#X msg 433 388 1;
#X connect 0 0 1 0;
#X connect 1 0 3 0;
#X connect 1 1 3 0;
#X connect 1 2 3 0;
#X connect 1 3 3 0;
#X connect 1 4 3 0;
#X connect 1 5 3 0;
#X connect 1 6 3 0;
#X connect 1 7 3 0;
#X connect 1 8 3 0;
#X connect 1 9 3 0;
#X connect 1 10 3 0;
#X connect 1 11 3 0;
#X connect 1 12 3 0;
#X connect 1 13 3 0;
#X connect 1 14 3 0;
#X connect 1 15 3 0;
#X connect 1 16 3 0;
#X connect 1 17 3 0;
#X connect 1 18 3 0;
#X connect 1 19 3 0;
#X connect 1 20 3 0;
#X connect 1 21 3 0;
#X connect 1 22 3 0;
#X connect 1 23 3 0;
#X connect 1 24 3 0;
#X connect 1 25 3 0;
#X connect 1 26 3 0;
#X connect 1 27 3 0;
#X connect 1 28 3 0;
#X connect 1 29 3 0;
#X connect 1 30 3 0;
#X connect 1 31 3 0;
#X connect 1 32 3 0;
#X connect 1 33 3 0;
#X connect 1 40 4 0;
#X connect 3 0 2 0;
#X connect 4 0 5 0;
#X connect 4 1 5 0;
#X connect 4 2 5 0;
#X connect 4 3 5 0;
#X connect 4 4 5 0;
#X connect 4 5 5 0;
#X connect 4 6 5 0;
#X connect 4 7 5 0;
#X connect 4 8 5 0;
#X connect 5 0 2 0;
#X restore 632 960 pd loop-pre;
#X connect 1 0 2 0;
#X connect 1 0 73 0;
#X connect 2 0 37 0;
#X connect 3 0 19 0;
#X connect 4 0 31 0;
#X connect 5 0 10 0;
#X connect 6 0 2 1;
#X connect 7 0 62 0;
#X connect 8 0 5 0;
#X connect 9 0 7 0;
#X connect 10 0 9 0;
#X connect 10 1 20 0;
#X connect 12 0 1 0;
#X connect 17 0 3 0;
#X connect 17 1 19 0;
#X connect 18 0 17 0;
#X connect 19 0 41 0;
#X connect 19 1 30 0;
#X connect 20 0 62 0;
#X connect 21 0 23 0;
#X connect 22 0 24 0;
#X connect 22 1 21 0;
#X connect 23 0 24 1;
#X connect 24 1 25 0;
#X connect 26 0 27 0;
#X connect 27 0 25 0;
#X connect 30 0 75 0;
#X connect 30 0 76 0;
#X connect 31 0 29 0;
#X connect 32 0 34 0;
#X connect 34 0 33 0;
#X connect 37 0 0 0;
#X connect 39 0 38 0;
#X connect 41 0 38 0;
#X connect 43 0 39 0;
#X connect 44 0 41 1;
#X connect 45 0 2 0;
#X connect 45 0 73 0;
#X connect 47 0 48 0;
#X connect 48 0 50 0;
#X connect 49 0 47 0;
#X connect 50 0 46 1;
#X connect 51 0 46 0;
#X connect 52 0 53 0;
#X connect 53 0 51 0;
#X connect 53 1 47 0;
#X connect 53 2 49 0;
#X connect 55 0 56 0;
#X connect 56 0 57 0;
#X connect 57 0 54 1;
#X connect 58 0 59 0;
#X connect 59 0 61 0;
#X connect 59 1 55 0;
#X connect 59 2 60 0;
#X connect 60 0 55 0;
#X connect 61 0 54 0;
#X connect 62 0 6 0;
#X connect 63 0 9 0;
#X connect 64 0 65 0;
#X connect 64 0 92 0;
#X connect 66 0 67 0;
#X connect 67 0 65 1;
#X connect 68 0 64 0;
#X connect 68 1 74 0;
#X connect 68 2 69 0;
#X connect 69 0 74 0;
#X connect 70 0 68 0;
#X connect 72 0 70 0;
#X connect 73 0 22 0;
#X connect 74 0 66 0;
#X connect 75 0 31 0;
#X connect 76 0 77 0;
#X connect 77 0 29 0;
#X connect 78 0 80 0;
#X connect 78 1 79 0;
#X connect 79 0 75 1;
#X connect 80 0 75 1;
#X connect 81 0 78 0;
#X connect 81 0 76 1;
#X connect 83 0 70 0;
#X connect 85 0 86 0;
#X connect 86 0 87 0;
#X connect 87 0 84 1;
#X connect 88 0 89 0;
#X connect 89 0 94 0;
#X connect 89 1 85 0;
#X connect 89 2 90 0;
#X connect 90 0 85 0;
#X connect 92 0 93 0;
#X connect 93 0 91 0;
#X connect 94 0 84 0;
#X coords 0 -1 1 1 250 58 2 0 0;
