#N canvas -8 -8 1362 721 10;
#X obj 267 373 soundfiler;
#X obj 267 275 openpanel;
#X obj 267 306 list append;
#X msg 83 447 stop;
#X obj 85 417 r stopall;
#X obj 336 187 makefilename dog%d.aif;
#X obj 498 186 makefilename dog%d.aif;
#X obj 487 45 bng 15 250 50 0 empty empty empty 17 7 0 10 -262144 -1
-1;
#X msg 267 340 read -resize \$1 \$2 \$3;
#X obj 398 219 list append;
#X obj 428 155 t f f;
#X msg 304 217 set \$1;
#X msg 499 279 set \$1;
#X obj 487 15 loadbang;
#X obj 62 580 throw~;
#X obj 424 124 f \$1;
#X obj 487 70 t b b;
#N canvas 0 50 450 250 (subpatch) 0;
#X array stereo-sound-\$1-L 100 float 3;
#A 0 0 0 0 0 0 0 0 0 0 0 0 0 0 0 0 0 0 0 0 0 0 0 0 0 0 0 0 0 0 0 0
0 0 0 0 0 0 0 0 0 0 0 0 0 0 0 0 0 0 0 0 0 0 0 0 0 0 0 0 0 0 0 0 0 0
0 0 0 0 0 0 0 0 0 0 0 0 0 0 0 0 0 0 0 0 0 0 0 0 0 0 0 0 0 0 0 0 0 0
0;
#X coords 0 1 100 -1 200 140 1;
#X restore 1293 298 graph;
#X msg 468 118 set stereo-sound-%d-L;
#X msg 514 142 set stereo-sound-%d-R;
#N canvas 0 50 450 250 (subpatch) 0;
#X array stereo-sound-\$1-R 100 float 3;
#A 0 0 0 0 0 0 0 0 0 0 0 0 0 0 0 0 0 0 0 0 0 0 0 0 0 0 0 0 0 0 0 0
0 0 0 0 0 0 0 0 0 0 0 0 0 0 0 0 0 0 0 0 0 0 0 0 0 0 0 0 0 0 0 0 0 0
0 0 0 0 0 0 0 0 0 0 0 0 0 0 0 0 0 0 0 0 0 0 0 0 0 0 0 0 0 0 0 0 0 0
0;
#X coords 0 1 100 -1 200 140 1 0 0;
#X restore 1292 468 graph;
#X obj 58 493 tabplay~ stereo-sound-\$1-L;
#X obj 229 491 tabplay~ stereo-sound-\$1-R;
#X obj 232 588 throw~;
#X obj 829 467 sel 1 2 3 4 5;
#X obj 67 17 hradio 15 1 0 8 \$1-send empty empty 0 -8 0 10 -262144
-1 -1 5;
#X obj 528 551 list prepend set;
#X obj 528 581 list trim;
#X msg 1196 308 Out2;
#X obj 491 462 sel 0 1 2 3 4 5, f 37;
#X msg 564 497 FX-1;
#X msg 600 495 FX-2;
#X msg 491 492 Out1;
#X msg 527 495 Out2;
#X msg 637 499 Angle1;
#X msg 682 500 Angle2;
#X obj 489 425 receive \$1-send;
#X symbolatom 67 2 10 0 0 0 - #1-destlabel -, f 10;
#X obj 528 616 send \$1-destlabel;
#X obj 267 249 receive \$1-open;
#X obj 43 17 bng 15 250 50 0 \$1-open empty empty 17 7 0 10 -258113
-1 -1;
#X text 0 1 PLAY;
#X text 30 2 LOAD;
#N canvas -8 -8 1366 725 dests 0;
#X msg 52 92 set Out1L;
#X msg 142 95 set Out1R;
#X msg 43 129 set Out2L;
#X msg 133 132 set Out2R;
#X msg 43 163 set FX-1L;
#X msg 138 165 set FX-1R;
#X obj 73 24 inlet;
#X obj 74 60 sel 0 1 2 3 4 5, f 37;
#X msg 37 212 set FX-2L;
#X msg 134 218 set FX-2R;
#X msg 46 270 set Angle1L;
#X msg 140 272 set Angle1R;
#X msg 50 312 set Angle2L;
#X msg 144 314 set Angle2R;
#X obj 54 443 outlet;
#X obj 162 420 outlet;
#X connect 0 0 14 0;
#X connect 1 0 15 0;
#X connect 2 0 14 0;
#X connect 3 0 15 0;
#X connect 4 0 14 0;
#X connect 5 0 15 0;
#X connect 6 0 7 0;
#X connect 7 0 0 0;
#X connect 7 0 1 0;
#X connect 7 1 2 0;
#X connect 7 1 3 0;
#X connect 7 2 4 0;
#X connect 7 2 5 0;
#X connect 7 3 9 0;
#X connect 7 3 8 0;
#X connect 7 4 10 0;
#X connect 7 4 11 0;
#X connect 7 5 12 0;
#X connect 7 5 13 0;
#X connect 8 0 14 0;
#X connect 9 0 15 0;
#X connect 10 0 14 0;
#X connect 11 0 15 0;
#X connect 12 0 14 0;
#X connect 13 0 15 0;
#X restore 343 536 pd dests;
#X obj 15 17 tgl 15 0 \$1-playtoggle empty empty 17 7 0 10 -4034 -1
-1 0 1;
#X obj 71 261 sel 0 1;
#X obj 73 230 receive \$1-playtoggle;
#X connect 1 0 2 0;
#X connect 2 0 8 0;
#X connect 3 0 21 0;
#X connect 3 0 22 0;
#X connect 4 0 3 0;
#X connect 5 0 11 0;
#X connect 5 0 9 0;
#X connect 6 0 12 0;
#X connect 6 0 9 1;
#X connect 7 0 16 0;
#X connect 8 0 0 0;
#X connect 9 0 2 1;
#X connect 10 0 5 0;
#X connect 10 1 6 0;
#X connect 13 0 7 0;
#X connect 15 0 10 0;
#X connect 16 0 15 0;
#X connect 16 1 19 0;
#X connect 16 1 18 0;
#X connect 18 0 5 0;
#X connect 19 0 6 0;
#X connect 21 0 14 0;
#X connect 22 0 23 0;
#X connect 26 0 27 0;
#X connect 27 0 38 0;
#X connect 29 0 32 0;
#X connect 29 1 33 0;
#X connect 29 2 30 0;
#X connect 29 3 31 0;
#X connect 29 4 34 0;
#X connect 29 5 35 0;
#X connect 30 0 26 0;
#X connect 31 0 26 0;
#X connect 32 0 26 0;
#X connect 33 0 26 0;
#X connect 34 0 26 0;
#X connect 35 0 26 0;
#X connect 36 0 29 0;
#X connect 36 0 43 0;
#X connect 39 0 1 0;
#X connect 43 0 14 0;
#X connect 43 1 23 0;
#X connect 45 0 3 0;
#X connect 45 1 21 0;
#X connect 45 1 22 0;
#X connect 46 0 45 0;
#X coords 0 -1 1 1 202 36 1 0 0;
