#N canvas 554 135 1362 721 10;
#X obj 269 419 soundfiler;
#X obj 267 275 openpanel;
#X obj 267 306 list append;
#X msg 83 447 stop;
#X obj 85 417 r stopall;
#X obj 336 187 makefilename dog%d.aif;
#X obj 498 186 makefilename dog%d.aif;
#X obj 487 45 bng 15 250 50 0 empty empty empty 17 7 0 10 -262144 -1
-1;
#X msg 269 386 read -resize \$1 \$2 \$3;
#X obj 398 219 list append;
#X obj 428 155 t f f;
#X msg 304 217 set \$1;
#X msg 499 279 set \$1;
#X obj 487 15 loadbang;
#X obj 62 580 throw~;
#X obj 424 124 f \$1;
#X obj 487 70 t b b;
#N canvas 0 50 450 250 (subpatch) 0;
#X array stereo-sound-\$1-L 4e+06 float 2;
#X coords 0 250 4e+06 249 200 140 0;
#X restore 31 631 graph;
#X msg 468 118 set stereo-sound-%d-L;
#X msg 514 142 set stereo-sound-%d-R;
#N canvas -8 -8 1366 725 (subpatch) 0;
#X array stereo-sound-\$1-R 4e+06 float 2;
#X coords 0 725 4e+06 724 200 140 0;
#X restore 43 664 graph;
#X obj 58 493 tabplay~ stereo-sound-\$1-L;
#X obj 229 491 tabplay~ stereo-sound-\$1-R;
#X obj 232 588 throw~;
#X obj 67 17 hradio 15 1 0 2 \$1-dest \$1-set-dest \$1 80 -8 0 10 -262144
-1 -1 0;
#X obj 528 551 list prepend set;
#X obj 528 581 list trim;
#X obj 491 462 sel 0 1 2 3 4 5, f 37;
#X msg 564 497 FX-1;
#X msg 600 495 FX-2;
#X msg 637 499 Angle1;
#X msg 682 500 Angle2;
#X symbolatom 67 2 10 0 0 0 - #1-destlabel -, f 10;
#X obj 528 616 send \$1-destlabel;
#X obj 267 249 receive \$1-open;
#X obj 43 17 bng 15 250 50 0 \$1-open empty empty 17 7 0 10 -258113
-1 -1;
#X text 0 1 PLAY;
#X text 30 2 LOAD;
#N canvas 398 207 1362 721 dests 0;
#X msg 52 92 set Out1L;
#X msg 142 95 set Out1R;
#X msg 43 129 set Out2L;
#X msg 133 132 set Out2R;
#X obj 73 24 inlet;
#X obj 74 60 sel 0 1 2 3 4 5, f 37;
#X obj 38 215 outlet;
#X obj 146 192 outlet;
#X connect 0 0 6 0;
#X connect 1 0 7 0;
#X connect 2 0 6 0;
#X connect 3 0 7 0;
#X connect 4 0 5 0;
#X connect 5 0 0 0;
#X connect 5 0 1 0;
#X connect 5 1 2 0;
#X connect 5 1 3 0;
#X restore 343 536 pd dests;
#X obj 15 17 tgl 15 0 \$1-playtoggle \$1-play empty 17 7 0 10 -4034
-1 -1 0 1;
#X obj 71 261 sel 0 1;
#X obj 69 214 receive \$1-playtoggle;
#X obj 489 425 receive \$1-dest;
#X msg 449 505 Stereo1;
#X msg 503 505 Stereo2;
#X obj 613 338 send \$1-set-dest;
#X obj 638 257 loadbang;
#X msg 624 306 0;
#X obj 109 549 send~ outputtest;
#X connect 1 0 2 0;
#X connect 2 0 8 0;
#X connect 3 0 21 0;
#X connect 3 0 22 0;
#X connect 4 0 3 0;
#X connect 5 0 11 0;
#X connect 5 0 9 0;
#X connect 6 0 12 0;
#X connect 6 0 9 1;
#X connect 7 0 16 0;
#X connect 8 0 0 0;
#X connect 9 0 2 1;
#X connect 10 0 5 0;
#X connect 10 1 6 0;
#X connect 13 0 7 0;
#X connect 15 0 10 0;
#X connect 16 0 15 0;
#X connect 16 1 19 0;
#X connect 16 1 18 0;
#X connect 18 0 5 0;
#X connect 19 0 6 0;
#X connect 21 0 14 0;
#X connect 21 0 48 0;
#X connect 22 0 23 0;
#X connect 22 0 48 0;
#X connect 25 0 26 0;
#X connect 26 0 33 0;
#X connect 27 0 43 0;
#X connect 27 1 44 0;
#X connect 27 2 28 0;
#X connect 27 3 29 0;
#X connect 27 4 30 0;
#X connect 27 5 31 0;
#X connect 28 0 25 0;
#X connect 29 0 25 0;
#X connect 30 0 25 0;
#X connect 31 0 25 0;
#X connect 34 0 1 0;
#X connect 38 0 14 0;
#X connect 38 1 23 0;
#X connect 40 0 3 0;
#X connect 40 1 21 0;
#X connect 40 1 22 0;
#X connect 41 0 40 0;
#X connect 42 0 27 0;
#X connect 42 0 38 0;
#X connect 43 0 25 0;
#X connect 44 0 25 0;
#X connect 46 0 47 0;
#X connect 47 0 45 0;
#X coords 0 -1 1 1 180 36 2 0 0;
