#N canvas -8 -8 1366 725 10;
#X obj 37 366 list trim;
#X obj 26 398 netsend -u -b;
#X msg 10 126 connect localhost 9000;
#X obj 36 330 list prepend send;
#X obj 20 42 loadbang;
#X obj 190 168 netreceive 8000;
#X msg 190 126 listen 8000;
#X obj 33 156 receive to-unity;
#X msg 190 201 route degrees;
#X obj 186 228 send unity-degrees;
#X obj 638 275 r metroticks;
#X obj 821 300 env~;
#X obj 818 342 snapshot~;
#X obj 26 429 sel 0;
#X msg 197 326 disconnect;
#X obj -2 488 spigot;
#X obj 74 433 tgl 15 0 empty empty auto_reconnect 17 7 0 10 -262144
-1 -1 1 1;
#X obj 819 454 change;
#X obj 442 404 list-max;
#X obj 487 435 change;
#X text 498 566 sends the current loudest band number;
#X floatatom 789 51 5 0 0 0 - - -, f 5;
#X obj 744 44 tgl 15 0 empty empty empty 17 7 0 10 -262144 -1 -1 0
1;
#X obj 744 116 s metroticks;
#N canvas 2309 193 1362 721 testtone 0;
#X obj 66 21 inlet;
#X obj 85 82 == 0;
#X obj 172 31 inlet;
#X obj 141 104 == 1;
#X obj 198 106 == 2;
#X obj 250 105 == 3;
#X obj 279 170 noise~;
#X obj 156 151 phasor~;
#X obj 156 236 -~ 0.5;
#X obj 45 156 osc~;
#X obj 313 107 == 4;
#X obj 385 275 switch~;
#X obj 360 102 == 5;
#X obj 360 131 sel 0 1;
#X msg 377 196 1;
#X msg 406 192 0;
#X obj 102 267 expr~ atan($v1);
#X obj 219 260 expr~ ($v1>.5)-.5;
#X obj 215 324 cpuamp~;
#X obj 46 323 cpuamp~;
#X obj 102 324 cpuamp~;
#X obj 159 323 cpuamp~;
#X obj 278 326 cpuamp~;
#X obj 190 188 * 0.2;
#X obj 240 179 * 0.2;
#X obj 318 216 * 0.08;
#X obj 102 508 *~ 1;
#X obj 98 541 send~ tone;
#X connect 0 0 1 0;
#X connect 0 0 3 0;
#X connect 0 0 4 0;
#X connect 0 0 5 0;
#X connect 0 0 10 0;
#X connect 0 0 12 0;
#X connect 1 0 19 1;
#X connect 2 0 7 0;
#X connect 2 0 9 0;
#X connect 3 0 20 1;
#X connect 4 0 23 0;
#X connect 5 0 24 0;
#X connect 6 0 22 0;
#X connect 7 0 8 0;
#X connect 7 0 17 0;
#X connect 8 0 21 0;
#X connect 9 0 16 0;
#X connect 9 0 19 0;
#X connect 10 0 25 0;
#X connect 12 0 13 0;
#X connect 13 0 14 0;
#X connect 13 1 15 0;
#X connect 14 0 11 0;
#X connect 15 0 11 0;
#X connect 16 0 20 0;
#X connect 17 0 18 0;
#X connect 18 0 26 0;
#X connect 19 0 26 0;
#X connect 20 0 26 0;
#X connect 21 0 26 0;
#X connect 22 0 26 0;
#X connect 23 0 21 1;
#X connect 24 0 18 1;
#X connect 25 0 22 1;
#X connect 26 0 27 0;
#X restore 946 181 pd testtone;
#X obj 896 58 hsl 128 15 32 128 0 0 empty empty TONE_FREQ -2 -8 0 10
-262144 -1 -1 0 1;
#X obj 893 105 mtof;
#X obj 946 93 vradio 15 1 0 5 empty empty TEST_TONE 0 -8 0 10 -262144
-1 -1 0;
#X text 967 92 SIN;
#X text 967 107 TRI;
#X text 967 121 SAW;
#X text 967 137 SQU;
#X text 967 153 NSE;
#X obj 854 18 r testtonenote;
#X obj 744 14 inlet;
#X obj 442 333 FreqSnapshot~ 10;
#X obj 744 78 metro 20;
#X obj 818 377 dbtorms;
#X obj 818 403 * 60;
#X text 1182 368 Test for speaker;
#X text 1207 385 volumes;
#X obj 957 347 pitch2unity tom;
#X obj 323 435 unityformat freqsnapshot;
#X obj 487 592 unityformat freqsnapshot/loudest;
#X obj 1112 610 print;
#X obj 1105 585 oscparse;
#X obj 1102 549 spigot;
#X obj 1221 5 inlet;
#X obj 817 425 clip 0 1;
#X obj 330 543 r high-levels;
#X obj 174 546 r mid-levels;
#X obj 26 538 r bass-levels;
#X obj 26 572 unityformat bass-levels;
#X obj 174 573 unityformat mid-levels;
#X obj 330 579 unityformat high-levels;
#X obj 645 486 outlet;
#X obj 440 250 catch~ analyse-freq;
#X obj 376 107 r scene-num;
#X obj 416 216 unityformat scene-num;
#X obj 830 497 unityformat tom-volume;
#X obj 513 705 env~;
#X obj 513 746 snapshot~;
#X obj 514 858 change;
#X obj 513 781 dbtorms;
#X obj 513 807 * 60;
#X obj 512 829 clip 0 1;
#X obj 652 751 pitch2unity james;
#X obj 515 891 unityformat james-volume;
#X obj 511 667 catch~ analyse-james;
#X obj 839 249 catch~ analyse-tom;
#X obj 288 713 env~;
#X obj 288 754 snapshot~;
#X obj 289 866 change;
#X obj 288 789 dbtorms;
#X obj 287 837 clip 0 1;
#X obj 286 675 catch~ analyse-vol;
#X obj 288 815 * 0.5;
#X obj 290 899 unityformat sample-volume;
#X obj 894 790 outlet;
#X obj 497 119 unityformat scene-deactivate;
#X obj 1281 777 outlet~;
#X obj 1345 776 outlet~;
#X obj 1319 118 r playing-wavname;
#X obj 1321 171 t b a;
#X obj 1357 258 list trim;
#X obj 1337 340 unityformat samples/wavname;
#X msg 1272 230 1;
#X obj 1356 213 list prepend set samples;
#X obj 1278 459 r bar-colour-change;
#X obj 1277 513 unityformat bar-colour;
#X obj 493 15 r deactivate-state, f 26;
#X obj 493 47 sel 1, f 26;
#X msg 495 80 1;
#X obj 384 21 r CT3-done;
#X obj 376 167 route 8;
#X msg 415 134 7;
#X msg 337 221 8;
#X obj 337 167 t b;
#X obj 337 194 delay 40000;
#X obj 579 160 r deactivate-state;
#X msg 579 231 stop;
#X obj 579 192 sel 1;
#X connect 0 0 1 0;
#X connect 1 0 13 0;
#X connect 2 0 1 0;
#X connect 3 0 0 0;
#X connect 4 0 2 0;
#X connect 4 0 6 0;
#X connect 4 0 16 0;
#X connect 5 0 8 0;
#X connect 6 0 5 0;
#X connect 7 0 3 0;
#X connect 8 0 9 0;
#X connect 10 0 12 0;
#X connect 10 0 35 1;
#X connect 10 0 61 0;
#X connect 10 0 71 0;
#X connect 11 0 12 0;
#X connect 12 0 37 0;
#X connect 13 0 15 0;
#X connect 14 0 1 0;
#X connect 15 0 2 0;
#X connect 16 0 15 1;
#X connect 17 0 59 0;
#X connect 18 1 19 0;
#X connect 19 0 43 0;
#X connect 21 0 36 1;
#X connect 22 0 36 0;
#X connect 25 0 26 0;
#X connect 26 0 24 1;
#X connect 27 0 24 0;
#X connect 33 0 26 0;
#X connect 34 0 22 0;
#X connect 35 0 18 0;
#X connect 35 0 42 0;
#X connect 36 0 23 0;
#X connect 37 0 38 0;
#X connect 38 0 48 0;
#X connect 45 0 44 0;
#X connect 46 0 45 0;
#X connect 47 0 46 1;
#X connect 48 0 17 0;
#X connect 48 0 55 0;
#X connect 49 0 54 0;
#X connect 50 0 53 0;
#X connect 51 0 52 0;
#X connect 56 0 35 0;
#X connect 57 0 94 0;
#X connect 59 0 46 0;
#X connect 60 0 61 0;
#X connect 61 0 63 0;
#X connect 62 0 67 0;
#X connect 63 0 64 0;
#X connect 64 0 65 0;
#X connect 65 0 62 0;
#X connect 65 0 78 0;
#X connect 68 0 60 0;
#X connect 68 0 66 0;
#X connect 68 0 81 0;
#X connect 69 0 11 0;
#X connect 69 0 41 0;
#X connect 69 0 80 0;
#X connect 70 0 71 0;
#X connect 71 0 73 0;
#X connect 72 0 77 0;
#X connect 73 0 76 0;
#X connect 74 0 72 0;
#X connect 75 0 70 0;
#X connect 76 0 74 0;
#X connect 82 0 83 0;
#X connect 83 0 86 0;
#X connect 83 1 87 0;
#X connect 84 0 85 0;
#X connect 86 0 85 0;
#X connect 87 0 84 0;
#X connect 88 0 89 0;
#X connect 90 0 91 0;
#X connect 91 0 92 0;
#X connect 92 0 79 0;
#X connect 93 0 92 0;
#X connect 94 0 97 0;
#X connect 94 1 58 0;
#X connect 95 0 94 0;
#X connect 96 0 58 0;
#X connect 97 0 98 0;
#X connect 98 0 96 0;
#X connect 99 0 101 0;
#X connect 100 0 98 0;
#X connect 101 0 100 0;
