#N canvas 140 166 624 540 10;
#X obj 365 169 list-splitter, f 17;
#X obj 36 -11 inlet;
#X obj 118 460 outlet;
#X obj 464 191 list prepend \$1;
#X obj 365 306 spigot;
#X msg 406 241 0;
#X msg 464 214 set \$1/\$2;
#X obj 464 236 t b a;
#X msg 464 281 1;
#X obj 365 349 oscformat;
#X obj 58 83 list-len;
#X obj 36 113 sel 1;
#X msg 80 158 1;
#X msg 82 137 0;
#X obj 322 102 spigot;
#X obj 36 48 t a a;
#X obj 12 203 spigot;
#X msg 70 200 1;
#X msg 70 227 0;
#X obj 13 288 oscformat \$1;
#X text 370 77 format input list;
#X text 88 112 format single value;
#X obj 126 406 send to-unity;
#X obj 38 17 route set;
#X obj 158 46 list prepend set;
#X obj 163 81 list trim;
#X connect 0 0 4 0;
#X connect 0 1 3 0;
#X connect 1 0 23 0;
#X connect 3 0 6 0;
#X connect 4 0 5 0;
#X connect 4 0 9 0;
#X connect 5 0 4 1;
#X connect 6 0 7 0;
#X connect 7 0 8 0;
#X connect 7 1 9 0;
#X connect 8 0 4 1;
#X connect 9 0 2 0;
#X connect 9 0 22 0;
#X connect 10 0 11 0;
#X connect 11 0 13 0;
#X connect 11 0 17 0;
#X connect 11 1 12 0;
#X connect 11 1 18 0;
#X connect 12 0 14 1;
#X connect 13 0 14 1;
#X connect 14 0 0 0;
#X connect 15 0 14 0;
#X connect 15 0 16 0;
#X connect 15 1 10 0;
#X connect 16 0 19 0;
#X connect 17 0 16 1;
#X connect 18 0 16 1;
#X connect 19 0 2 0;
#X connect 19 0 22 0;
#X connect 23 0 24 0;
#X connect 23 1 15 0;
#X connect 24 0 25 0;
#X connect 25 0 19 0;
